<svg version="1.1" id="Artwork" xmlns="http://www.w3.org/2000/svg" x="0" y="0" viewBox="0 0 113.6 26.1" xml:space="preserve"><style>.st0{fill:#231f20}.st1{font-family:&apos;Baskerville&apos;}.st2{font-size:4px}.st3{fill:#52a02f}</style><text transform="translate(-.13 24.766)" class="st0 st1 st2">SOY FREE</text><text transform="translate(27.574 24.766)" class="st0 st1 st2">DAIRY FREE</text><text transform="translate(58.062 24.766)" class="st0 st1 st2">GLUTEN FREE</text><text transform="translate(93.224 24.766)" class="st0 st1 st2">NON GMO</text><path class="st3" d="M72.1 0c-5.2 0-9.4 4.2-9.4 9.4s4.2 9.4 9.4 9.4 9.4-4.2 9.4-9.4S77.3 0 72.1 0zm6.3 15l-1.9-1.9c0 .3 0 .8-.2 1.3l1.3 1.3c-1.5 1.3-3.4 2.1-5.6 2.1-4.7 0-8.4-3.8-8.4-8.4 0-2.1.8-4.1 2.1-5.6l1.9 1.9.5-.1c.1 0 .3-.1.7-.1l-2.4-2.4C68 1.8 69.9 1 72.1 1c4.7 0 8.4 3.8 8.4 8.4 0 2.2-.8 4.2-2.1 5.6zM42.5 7.9l-1-3.6v-.1c.3-.1.4-.3.4-.6 0-.4-.3-.7-.7-.7h-2.7c-.4 0-.7.3-.7.7 0 .3.2.5.4.6v.1l-1 3.5c-.2.9-.2 1.5-.2 2.1V14c0 1.1.9 2 2 2h1.8c1.1 0 2-.9 2-2V9.9c-.1-.4-.1-1.1-.3-2zm-.3 2.3v3.9c0 .8-.7 1.5-1.5 1.5h-1.8c-.8 0-1.5-.7-1.5-1.5V9.3l.3.1s.6.1 1 0c.8-.1 1.5-.6 2.2-.9.5-.3 1-.2 1-.2h.2c.2.8.1 1.5.1 1.9z"/><path class="st3" d="M39.5 0c-5.2 0-9.4 4.2-9.4 9.4s4.2 9.4 9.4 9.4S49 14.7 49 9.4 44.7 0 39.5 0zm6.3 15l-2.2-2.2v1.4l1.5 1.5c-1.5 1.3-3.4 2.1-5.6 2.1-4.7 0-8.4-3.8-8.4-8.4 0-2.1.8-4.1 2.1-5.6l3.1 3.1.3-1.1-2.7-2.7C35.4 1.8 37.4 1 39.5 1 44.2 1 48 4.8 48 9.4c0 2.2-.8 4.2-2.2 5.6zM13.2 7.6c-.6 0-1.2.4-1.7.3-.3-.1-.5-.3-.8-.4-.2-.1-.3-.2-.6-.2H10c-.7-.3-1.2.1-1.6-.1-.6-.1-.9-.6-1.6-.9-.8-.3-1.7.3-2.2.3-.4.1-.6-.1-.7-.1-.1.1 0 1.7.3 2.6.4 1 1.1 1.1 1.6 1.7.5.5.7 1.1 1.4 1.6h.1c.2.1.5.2.7.3.5.2.9.1 1.2.3.5.2 1.1.7 1.9.9 1 .1 2.5-.7 2.5-.8 0-.1-.5-.3-.6-.6-.1-.3-.1-.9-.9-1.2-.5-.3-1.3-.1-1.7-.5l-.2-.2c.5 0 .9-.2 1.2-.2.5 0 1.3.2 2.1 0 .9-.3 2-1.6 1.9-1.7-.1-.1-.6-.1-.8-.3-.3-.3-.6-.8-1.4-.8zM6.7 9.5l-.1.1c-.4.4-1.1.3-1.6-.2-.3-.4-.5-.9-.3-1.3 0-.1.1-.2.2-.3.4-.4 1.1-.3 1.5.2.5.5.6 1.1.3 1.5zm2.6 2.1c-.2.3-.6.5-1 .5-.2 0-.5-.1-.7-.2-.6-.4-.8-1-.5-1.5.2-.3.5-.4.8-.5.2 0 .4 0 .7.1.1 0 .1.1.2.1.2.1.3.2.4.4.2.4.3.8.1 1.1zm2.1-.1c.6.2.9.8.8 1.2-.2.5-.8.7-1.4.5-.6-.2-.9-.8-.8-1.2.2-.4.8-.7 1.4-.5z"/><path class="st3" d="M9.5 0C4.3 0 .1 4.2.1 9.4s4.2 9.4 9.4 9.4 9.4-4.2 9.4-9.4S14.7 0 9.5 0zm6.3 15l-1.4-1.4-.1.1c-.1.2-.4.4-.7.5l1.5 1.5c-1.5 1.3-3.4 2.1-5.6 2.1-4.7 0-8.4-3.8-8.4-8.4 0-2.1.8-4.1 2.1-5.6l1.7 1.7c.3-.1.7-.2 1.1-.3L3.9 3.1C5.4 1.8 7.4 1 9.5 1 14.2 1 18 4.8 18 9.4c0 2.2-.9 4.2-2.2 5.6zm87.6-15C98.2 0 94 4.2 94 9.4s4.2 9.4 9.4 9.4 9.4-4.2 9.4-9.4-4.2-9.4-9.4-9.4zm6.3 15l-2-2c-.1.2-.1.4-.2.6 0 .2-.1.3-.2.5l1.6 1.6c-1.5 1.3-3.4 2.1-5.6 2.1-4.7 0-8.4-3.8-8.4-8.4 0-2.1.8-4.1 2.1-5.6l2.4 2.4c0-.4.1-.8.2-1.2l-1.9-1.9c1.5-1.3 3.4-2.1 5.6-2.1 4.7 0 8.4 3.8 8.4 8.4.2 2.2-.7 4.2-2 5.6z"/><path class="st3" d="M104.2 12h-2.8c-.1-.9 0-1 .8-1h2v-.2c-.8-.4-1.7 0-2.6-.3.3-.3.6-.5.9-.8-.9-.5-1-.5-1.6.4-.5.8-.5.9 0 1.7.1.1.2.3.3.4.1.1.2.1.3.2h2.8c.4-.4.2-.4-.1-.4zm-.4 1.4h-1.2c.6.6.7.6 1.2 0zM69.4 13c-.6-.1-1 .1-1 .1s0 .4.1.9.3 1 .9 1.5c1.1 1 2.5 1.1 2.5 1.1s.2-1.9-.9-2.9c-.6-.5-1.1-.6-1.6-.7zm3.7-7.9c0-1.6-1.2-2.5-1.2-2.5s-1.2.9-1.2 2.5 1.2 2.5 1.2 2.5 1.2-.9 1.2-2.5zm-1 3.9c-.1.6 0 1.1 0 1.1s.1 0 .3-.1c.5-.1 1.4-.4 2.1-1 .8-.7.9-1.5.9-2v-.3s-.4-.1-.9-.1-1.1.2-1.6.6c-.5.5-.7 1.2-.8 1.8zm-.9.9c.4.1.6.1.6.1v-.7c-.1-.7-.3-1.6-.9-2.2-1.1-1-2.5-.6-2.5-.6s-.2 1.5.9 2.5c.7.5 1.4.8 1.9.9zm1.8.5c-1.1 1-.9 2.9-.9 2.9s1.4-.2 2.5-1.1c1.1-1 .9-2.4.9-2.4s-1.4-.3-2.5.6zm-3.7 1.8c.2.1.3.3.5.4 1 .6 2 .7 2 .7s.1-1.3-.4-2.3c-.1-.2-.3-.4-.5-.6 0 0-.1 0-.1-.1-1.1-.9-2.4-.5-2.4-.5s-.2 1.2.7 2.2c.1.1.2.1.2.2zm3.7 1.4c-1.1 1-.9 2.9-.9 2.9s1.4-.2 2.5-1.1c1.1-1 .9-2.4.9-2.4s-1.4-.3-2.5.6z"/><path class="st3" d="M102.1 8.9c.6.3 1.2.6 1.7.9.6.3 1 .8 1.2 1.5.1.3 0 .5.1.9.2-.3.3-.5.5-.6.4-.4.3-.7.1-1.1-.5-.9-1.3-1.4-2.1-1.8-.4-.2-.8-.4-1.1-.6-.4-.3-.8-.7-.9-1.1-.4-1.3.4-2.6 1.6-3.2.1 0 .2-.1.2 0 .4.2.7.5 1.1.7-.7.2-1.5-.2-2.1.5h2c.4 0 .6.1.6.5 0 .1.1.3.1.4h-2.8c-.4 0-.4 0-.3.5h3.1v.3c0 .6-.1.6-.6.6h-2.3c.8.8 1.6.3 2.4.5-.2.2-.4.4-.7.5.3.2.5.3.9.5.3-.4.8-.8 1-1.4.5-1.3.2-3.1-1.2-3.9-1.7-1.1-1-1-2.7 0-1.7 1-2.1 4.2.2 5.4z"/><path class="st3" d="M106.3 11.4c-.3.4-.6.9-1 1.3-.7.7-1.4 1.3-2 1.9-.3-.2-.5-.5-.7-.7-.4-.4-.9-.7-1.2-1.2-.5-.5-.8-1.1-1.3-1.6-.4-.4-.8-.7-1.5-.6.9.9 1.2 2 1.5 3 .4 1.4 1.9 2.6 3.2 2.7 1.5 0 3.1-1.3 3.5-2.8.2-1 .6-1.9 1.3-2.7v-.2c-.9 0-1.4.4-1.8.9z"/></svg>