<svg xmlns="http://www.w3.org/2000/svg" viewBox="0 0 129.2 119.5"><style>.st1{fill:#0f1414}.st2{font-family:&apos;Roboto-Medium&apos;}.st3{font-size:4px}.st4{font-family:&apos;Roboto-Regular&apos;}</style><g id="Artwork"><path fill="#fff" stroke="#000" stroke-miterlimit="10" d="M.5.5h128.2v105H.5z"/><path class="st1" d="M4.5 56.1h119.6v4.8H4.5zm0 12.4h119.6v.6H4.5zm0-39.3h119.6V34H4.5zm0 12.1h119.6v2.4H4.5zm0 51h119.6v4.8H4.5z"/></g><g id="Text"><text transform="translate(4.07 21.408)" class="st1 st2 st3">Serving Size: 2 capsules</text><text transform="translate(4.738 48.692)"><tspan x="0" y="0" class="st1 st2 st3">Selenium </tspan><tspan x="20.2" y="0" class="st1 st4 st3">(from high-selenium yeast)</tspan><tspan x="0" y="4.8" class="st1 st4 st3"> (SelenoExcell®)</tspan></text><text transform="translate(4.821 66.206)"><tspan x="0" y="0" class="st1 st2 st3">N-Acetyl-L-Cysteine </tspan><tspan x="42.9" y="0" class="st1 st2 st3">(NAC)</tspan></text><text transform="translate(4.817 74.36)"><tspan x="0" y="0" class="st1 st2 st3">Blood Orange Extract</tspan><tspan x="48" y="0" class="st1 st2 st3"> </tspan><tspan x="49" y="0" class="st1 st3" font-family="Roboto-MediumItalic">(Citrus sinensis)</tspan></text><text transform="translate(7.236 79.9)"><tspan x="0" y="0" class="st1 st2 st3">(fruit pericarp</tspan><tspan x="24.5" y="0" class="st1 st4 st3">) (8.5% flavanones, 2.8%</tspan><tspan x="0" y="4.8" class="st1 st4 st3">anthocyanins, &amp; 1.8% hydroxycinnamic acid)</tspan><tspan x="0" y="9.6" class="st1 st4 st3">(Red Orange Complex®)</tspan></text><text transform="translate(9.119 102.557)" class="st1 st2 st3">Daily Value not established</text><text transform="translate(0 113.127)"><tspan x="0" y="0" class="st1 st4 st3">Other ingredients: microcrystalline cellulose, gelatin, stearic acid,</tspan><tspan x="0" y="5.3" class="st1 st4 st3">magnesium stearate and silica</tspan></text><text transform="translate(76.432 38.929)" class="st1 st2 st3">Amount per Serving</text><text transform="translate(96.227 48.517)" class="st1 st2 st3">200 mcg</text><text transform="translate(98.32 65.788)" class="st1 st2 st3">600 mg</text><text transform="translate(98.32 74.288)" class="st1 st2 st3">100 mg</text><path class="st1" d="M123.4 63.7h-1v-1h-.4v1h-1v.4h1v2.2h.4v-2.2h1zm0 8.2h-1v-1h-.4v1h-1v.5h1v2.1h.4v-2.1h1zm-116 28.2h-.9v-1H6v1h-.9v.5H6v2.1h.5v-2.1h.9z"/><text transform="translate(114.99 38.929)" class="st1 st2 st3">% DV</text><text transform="translate(3.855 26.408)" class="st1 st2 st3">Servings per Container: 30</text><text transform="translate(114.513 48.517)" class="st1 st3" font-family="Roboto-Black">364%</text><text transform="matrix(1 -.00597 .00597 1 3.876 13.438)" class="st1" font-size="13" font-family="Roboto-Bold">Supplement Facts</text></g></svg>