<svg xmlns="http://www.w3.org/2000/svg" viewBox="0 0 153 16.2"><path d="M0 15.7v-5h.6c.7 3.3 2.2 4.9 4.6 4.9 1.1 0 1.9-.3 2.5-.9.6-.6.9-1.3.9-2.1s-.3-1.4-.8-2c-.5-.5-1.4-1.1-2.8-1.7-1.2-.5-2.2-1-2.8-1.4C1.5 7.1 1 6.6.6 5.9c-.3-.6-.5-1.3-.5-2 0-1.1.4-2 1.2-2.8C2 .4 3 0 4.2 0c.7 0 1.3.1 1.9.3.5.2 1.1.7 1.7 1.4.4-.4.6-.9.6-1.4h.5v4.1h-.5c-.3-1.2-.8-2.2-1.5-2.8-.7-.7-1.6-1-2.6-1-.9 0-1.6.3-2 .8-.4.4-.7.9-.7 1.5 0 .7.3 1.3.8 1.8.6.6 1.6 1.1 3 1.8 1.3.6 2.3 1.1 2.9 1.4.6.4 1.1.9 1.5 1.5.4.6.6 1.4.6 2.2 0 1.3-.4 2.4-1.3 3.2-.9.8-2.1 1.3-3.6 1.3-1.7 0-3.1-.7-4.3-2-.3.4-.4.9-.6 1.5H0zM24.8 11h.6l-.4 4.9H12.1v-.5h.3c.8 0 1.3-.1 1.5-.3.2-.2.4-.5.4-.8.1-.3.1-1.1.1-2.4V4.2c0-1.2 0-2-.1-2.3s-.1-.7-.4-.9c-.2-.1-.7-.2-1.5-.2V.3h11.1l.4 3.9h-.5c-.2-1.1-.5-1.9-.9-2.3-.4-.5-.8-.7-1.3-.9S19.9.8 18.8.8h-2.2v6.5h1.7c.8 0 1.3-.1 1.6-.2.3-.1.5-.3.6-.6s.1-.8.1-1.5h.5v5.3h-.5c0-.9-.1-1.4-.2-1.7-.1-.3-.4-.5-.6-.6-.3-.1-.8-.1-1.4-.1h-1.7v3.7c0 1.8.1 2.9.4 3.3.2.3.9.5 1.9.5h1.2c.8 0 1.5-.1 2-.3.5-.2 1-.6 1.5-1.3.4-.7.8-1.6 1.1-2.8zm15.3.3l-.1 4.6H26.7v-.5h.5c.7 0 1.1-.1 1.4-.3.3-.2.4-.4.5-.8.1-.4.1-1.2.1-2.5V4.2c0-1.2 0-2-.1-2.4s-.3-.6-.5-.8c-.2-.1-.7-.2-1.5-.2h-.3V.3h7.5v.5h-.7c-.8 0-1.3.1-1.5.2-.2.1-.4.4-.5.7-.1.3-.1 1.2-.1 2.5v8.2c0 1.1 0 1.8.1 2.1.1.3.2.5.5.7.3.2.9.2 1.8.2h1.2c1 0 1.7-.1 2.1-.3.5-.2.9-.5 1.3-1.1s.8-1.5 1.1-2.7h.5zm13.6-.3h.6l-.3 4.8H41v-.5h.3c.8 0 1.3-.1 1.5-.3.2-.2.4-.5.4-.8.1-.3.1-1.1.1-2.4V4.2c0-1.2 0-2-.1-2.3s-.2-.7-.4-.9c-.2-.1-.7-.2-1.5-.2V.3h11.1l.4 3.9h-.5c-.2-1.1-.5-1.9-.9-2.3-.4-.5-.8-.8-1.3-.9S48.8.8 47.7.8h-2.2v6.5h1.7c.8 0 1.3-.1 1.6-.2.3-.1.5-.3.6-.6s.1-.8.1-1.5h.5v5.3h-.5c0-.9-.1-1.4-.2-1.7-.1-.3-.3-.5-.6-.6-.3-.1-.8-.1-1.4-.1h-1.7v3.7c0 1.8.1 2.9.4 3.3.2.3.9.5 1.9.5H49c.8 0 1.5-.1 2-.3.5-.2 1-.6 1.5-1.3.5-.7.9-1.6 1.2-2.8zm15.7 5.2l-11-14.6v10.8c0 .9 0 1.5.1 1.8s.3.5.8.8c.4.2 1 .4 1.9.4v.5h-5.8v-.5c.7-.1 1.3-.2 1.7-.4.4-.2.6-.5.7-.7s.1-.8.1-1.8V4.2c0-1.2-.1-2-.2-2.4-.1-.4-.3-.7-.5-.8s-.8-.2-1.6-.2V.3h4.6l9.2 12.2V3.2c0-.7-.1-1.2-.2-1.4-.1-.3-.4-.5-.9-.7-.4-.2-1-.2-1.6-.2V.3h5.6v.5c-.7.1-1.2.2-1.6.4-.4.2-.6.4-.7.7-.1.3-.2.8-.2 1.4v12.9h-.4zM86 11h.6l-.3 4.8h-13v-.5h.3c.8 0 1.3-.1 1.5-.3.2-.2.4-.5.4-.8.1-.3.1-1.1.1-2.4V4.2c0-1.2 0-2-.1-2.3s-.1-.7-.4-.9c-.2-.1-.7-.2-1.5-.2V.3h11.1l.4 3.9h-.5c-.2-1.1-.5-1.9-.9-2.3-.4-.5-.8-.7-1.3-.9S81.1.8 80 .8h-2.2v6.5h1.7c.8 0 1.3-.1 1.6-.2.3-.1.5-.3.6-.6s.1-.8.1-1.5h.5v5.3h-.5c0-.9-.1-1.4-.2-1.7-.1-.3-.4-.5-.6-.6-.3-.1-.8-.1-1.4-.1h-1.7v3.7c0 1.8.1 2.9.4 3.3.2.3.9.5 1.9.5h1.2c.8 0 1.5-.1 2-.3.5-.2 1-.6 1.5-1.3.5-.7.8-1.6 1.1-2.8zm11-3.8l4 4.9c1.4 1.7 2.4 2.7 2.7 2.9s.9.3 1.5.3v.5h-7.7v-.5c.8 0 1.3-.1 1.6-.2.3-.1.5-.4.5-.7 0-.2-.1-.4-.2-.6-.1-.2-.5-.7-1.1-1.4L95.5 9l-2.4 3c-.6.7-.9 1.2-1.1 1.5s-.3.6-.3.8c0 .8.6 1.2 1.8 1.2v.5h-6v-.5c.7 0 1.2-.2 1.8-.4.5-.2 1-.6 1.5-1 .4-.4 1.1-1.2 1.9-2.2l2.6-3.1-4.1-4.9L89.9 2c-.3-.3-.6-.6-.9-.8-.3-.2-.8-.3-1.4-.3V.3h6.6v.5H94c-.9 0-1.3.2-1.3.7 0 .2.1.4.2.6.1.2.4.6.9 1.2l2.9 3.5 2.6-3.2c.6-.7.9-1.1 1-1.3s.2-.4.2-.6c0-.3-.2-.5-.5-.7-.3-.1-.8-.2-1.6-.2V.3h5.8v.5c-1 0-1.8.3-2.5.9s-1.4 1.4-2.2 2.4L97 7.2z" fill="#0f1414"/><path d="M115 9.2h6.7v.6c-.7 0-1.2.1-1.5.2-.3.1-.4.4-.5.7s-.1 1.2-.1 2.5v1.7h-.5c-.6 0-1.4.2-2.3.5-1.3.5-2.5.7-3.6.7-2.2 0-4.1-.7-5.6-2.2-1.5-1.5-2.2-3.3-2.2-5.6 0-2.2.7-4.2 2.1-5.9s3.3-2.5 5.7-2.5c2.1 0 3.8.8 5.2 2.3.3-.5.4-1.1.5-1.7h.6v5.2h-.6c-.3-1.5-.9-2.8-1.9-3.7-1-.9-2.2-1.4-3.6-1.4-1.5 0-2.7.5-3.8 1.6S108 5.2 108 8s.5 4.7 1.6 5.9 2.3 1.7 3.9 1.7c.8 0 1.5-.2 2.2-.5.7-.3 1.1-.7 1.3-1.2s.4-1.1.4-1.8c0-.8-.1-1.4-.2-1.7-.1-.3-.3-.5-.5-.6s-.7-.1-1.3-.1h-.4v-.5zm8.6 6.5v-5h.6c.7 3.3 2.2 4.9 4.6 4.9 1.1 0 1.9-.3 2.5-.9.6-.6.9-1.3.9-2.1s-.3-1.4-.8-2c-.5-.5-1.5-1.1-2.9-1.7-1.2-.5-2.2-1-2.8-1.4-.6-.4-1.1-.9-1.5-1.6-.4-.6-.5-1.3-.5-2.1 0-1.1.4-2 1.2-2.8.8-.7 1.7-1.1 2.9-1.1.7 0 1.3.1 1.9.3.6.2 1.2.7 1.8 1.3.4-.4.6-.9.6-1.4h.5v4.1h-.6c-.3-1.2-.8-2.1-1.5-2.8-.7-.7-1.6-1-2.6-1-.9 0-1.6.3-2 .8-.4.5-.6 1.1-.6 1.6 0 .7.3 1.3.8 1.8s1.5 1.1 2.9 1.7c1.3.6 2.3 1.1 2.9 1.4.6.4 1.1.9 1.5 1.5.4.6.6 1.4.6 2.2 0 1.3-.4 2.4-1.3 3.2-.9.8-2.1 1.3-3.6 1.3-1.7 0-3.1-.7-4.3-2-.3.4-.4.9-.6 1.5h-.6zM148.5 8h-8.1v3.8c0 1.2 0 2 .1 2.4s.2.7.5.8.7.3 1.4.3h.4v.5h-7v-.5h.4c.7 0 1.1-.1 1.4-.3.3-.2.4-.4.5-.8.1-.4.1-1.2.1-2.5V4.2c0-1.2 0-2-.1-2.4-.1-.4-.2-.6-.5-.7-.2-.1-.7-.2-1.5-.2h-.3V.3h7v.5h-.3c-.8 0-1.3.1-1.5.2-.2.1-.4.4-.5.7-.1.3-.1 1.2-.1 2.5v3.1h8.1V4.2c0-1.2 0-2-.1-2.4-.1-.4-.2-.6-.5-.7-.2-.1-.7-.2-1.5-.2h-.4V.3h7.1v.5h-.2c-.8 0-1.3.1-1.5.2-.2.1-.4.4-.5.7-.1.3-.1 1.2-.1 2.5v7.6c0 1.2 0 2 .1 2.4.1.4.2.7.5.8.3.2.7.3 1.4.3h.4v.5H146v-.5h.5c.7 0 1.1-.1 1.4-.3.3-.2.4-.4.5-.8.1-.4.1-1.2.1-2.5V8z" fill="#52a02f"/></svg>