<?xml version="1.0" encoding="utf-8"?>
<!-- Generator: Adobe Illustrator 23.0.3, SVG Export Plug-In . SVG Version: 6.00 Build 0)  -->
<svg version="1.1" id="Artwork" xmlns="http://www.w3.org/2000/svg" xmlns:xlink="http://www.w3.org/1999/xlink" x="0px" y="0px"
	 viewBox="0 0 113.6 26.1" style="enable-background:new 0 0 113.6 26.1;" xml:space="preserve">
<style type="text/css">
	.st0{fill:#231F20;}
	.st1{font-family:'Baskerville';}
	.st2{font-size:4px;}
	.st3{fill:#52A02F;}
</style>
<text transform="matrix(1 0 0 1 -0.1297 24.7656)" class="st0 st1 st2">SOY FREE</text>
<text transform="matrix(1 0 0 1 27.5743 24.7656)" class="st0 st1 st2">DAIRY FREE</text>
<text transform="matrix(1 0 0 1 58.0616 24.7656)" class="st0 st1 st2">GLUTEN FREE</text>
<text transform="matrix(1 0 0 1 93.224 24.7656)" class="st0 st1 st2">NON GMO</text>
<path class="st3" d="M72.1,0c-5.2,0-9.4,4.2-9.4,9.4s4.2,9.4,9.4,9.4s9.4-4.2,9.4-9.4S77.3,0,72.1,0z M78.4,15l-1.9-1.9
	c0,0.3,0,0.8-0.2,1.3l1.3,1.3c-1.5,1.3-3.4,2.1-5.6,2.1c-4.7,0-8.4-3.8-8.4-8.4c0-2.1,0.8-4.1,2.1-5.6l1.9,1.9l0.5-0.1
	c0.1,0,0.3-0.1,0.7-0.1l-2.4-2.4C68,1.8,69.9,1,72.1,1c4.7,0,8.4,3.8,8.4,8.4C80.5,11.6,79.7,13.6,78.4,15z"/>
<g>
	<path class="st3" d="M42.5,7.9L42.5,7.9l-1-3.6c0,0,0-0.1,0-0.1c0.3-0.1,0.4-0.3,0.4-0.6c0-0.4-0.3-0.7-0.7-0.7h-2.7
		c-0.4,0-0.7,0.3-0.7,0.7c0,0.3,0.2,0.5,0.4,0.6c0,0,0,0.1,0,0.1l-1,3.5l0,0l0,0c-0.2,0.9-0.2,1.5-0.2,2.1l0,0v4.1c0,1.1,0.9,2,2,2
		h1.8c1.1,0,2-0.9,2-2v-3.9c0-0.1,0-0.1,0-0.2C42.7,9.5,42.7,8.8,42.5,7.9L42.5,7.9z M42.2,10.2v3.9c0,0.8-0.7,1.5-1.5,1.5h-1.8
		c-0.8,0-1.5-0.7-1.5-1.5v-4.1c0-0.2,0-0.5,0-0.7c0,0,0,0,0,0c0,0,0.3,0.1,0.3,0.1c0,0,0.6,0.1,1,0c0.8-0.1,1.5-0.6,2.2-0.9
		c0.5-0.3,1-0.2,1-0.2c0.1,0,0.2,0,0.2,0C42.3,9.1,42.2,9.8,42.2,10.2z"/>
	<path class="st3" d="M39.5,0c-5.2,0-9.4,4.2-9.4,9.4s4.2,9.4,9.4,9.4S49,14.7,49,9.4S44.7,0,39.5,0z M45.8,15l-2.2-2.2v1.2
		c0,0.1,0,0.1,0,0.2l1.5,1.5c-1.5,1.3-3.4,2.1-5.6,2.1c-4.7,0-8.4-3.8-8.4-8.4c0-2.1,0.8-4.1,2.1-5.6l3.1,3.1l0.3-1.1l-2.7-2.7
		C35.4,1.8,37.4,1,39.5,1C44.2,1,48,4.8,48,9.4C48,11.6,47.2,13.6,45.8,15z"/>
</g>
<g>
	<path class="st3" d="M13.2,7.6c-0.6,0-1.2,0.4-1.7,0.3c-0.3-0.1-0.5-0.3-0.8-0.4c-0.2-0.1-0.3-0.2-0.6-0.2c0,0-0.1,0-0.1,0
		C9.3,7,8.8,7.4,8.4,7.2C7.8,7.1,7.5,6.6,6.8,6.3C6,6,5.1,6.6,4.6,6.6C4.2,6.7,4,6.5,3.9,6.5c0,0,0,0,0,0c-0.1,0.1,0,1.7,0.3,2.6
		c0.4,1,1.1,1.1,1.6,1.7c0.5,0.5,0.7,1.1,1.4,1.6c0,0,0,0,0.1,0c0.2,0.1,0.5,0.2,0.7,0.3c0.5,0.2,0.9,0.1,1.2,0.3
		c0.5,0.2,1.1,0.7,1.9,0.9c1,0.1,2.5-0.7,2.5-0.8c0-0.1-0.5-0.3-0.6-0.6c-0.1-0.3-0.1-0.9-0.9-1.2c-0.5-0.3-1.3-0.1-1.7-0.5
		c-0.1-0.1-0.1-0.1-0.2-0.2c0.5,0,0.9-0.2,1.2-0.2c0.5,0,1.3,0.2,2.1,0c0.9-0.3,2-1.6,1.9-1.7c-0.1-0.1-0.6-0.1-0.8-0.3
		C14.3,8.1,14,7.6,13.2,7.6z M6.7,9.5c0,0-0.1,0.1-0.1,0.1C6.2,10,5.5,9.9,5,9.4C4.7,9,4.5,8.5,4.7,8.1c0-0.1,0.1-0.2,0.2-0.3
		C5.3,7.4,6,7.5,6.4,8C6.9,8.5,7,9.1,6.7,9.5z M9.3,11.6c-0.2,0.3-0.6,0.5-1,0.5c-0.2,0-0.5-0.1-0.7-0.2c0,0,0,0,0,0
		c-0.6-0.4-0.8-1-0.5-1.5c0.2-0.3,0.5-0.4,0.8-0.5c0.2,0,0.4,0,0.7,0.1c0.1,0,0.1,0.1,0.2,0.1c0.2,0.1,0.3,0.2,0.4,0.4c0,0,0,0,0,0
		C9.4,10.9,9.5,11.3,9.3,11.6z M11.4,11.5c0.6,0.2,0.9,0.8,0.8,1.2c-0.2,0.5-0.8,0.7-1.4,0.5c-0.6-0.2-0.9-0.8-0.8-1.2
		C10.2,11.6,10.8,11.3,11.4,11.5z"/>
	<path class="st3" d="M9.5,0C4.3,0,0.1,4.2,0.1,9.4s4.2,9.4,9.4,9.4c5.2,0,9.4-4.2,9.4-9.4S14.7,0,9.5,0z M15.8,15l-1.4-1.4
		l-0.1,0.1c-0.1,0.2-0.4,0.4-0.7,0.5l1.5,1.5c-1.5,1.3-3.4,2.1-5.6,2.1c-4.7,0-8.4-3.8-8.4-8.4c0-2.1,0.8-4.1,2.1-5.6l1.7,1.7
		C5.2,5.4,5.6,5.3,6,5.2L3.9,3.1C5.4,1.8,7.4,1,9.5,1C14.2,1,18,4.8,18,9.4C18,11.6,17.1,13.6,15.8,15z"/>
</g>
<g>
	<path class="st3" d="M103.4,0C98.2,0,94,4.2,94,9.4s4.2,9.4,9.4,9.4s9.4-4.2,9.4-9.4S108.6,0,103.4,0z M109.7,15l-2-2
		c-0.1,0.2-0.1,0.4-0.2,0.6c0,0.2-0.1,0.3-0.2,0.5l1.6,1.6c-1.5,1.3-3.4,2.1-5.6,2.1c-4.7,0-8.4-3.8-8.4-8.4c0-2.1,0.8-4.1,2.1-5.6
		l2.4,2.4c0-0.4,0.1-0.8,0.2-1.2l-1.9-1.9c1.5-1.3,3.4-2.1,5.6-2.1c4.7,0,8.4,3.8,8.4,8.4C111.9,11.6,111,13.6,109.7,15z"/>
	<path class="st3" d="M104.2,12c-0.9,0-1.9,0-2.8,0c-0.1-0.9,0-1,0.8-1c0.7,0,1.4,0,2,0c0-0.1,0-0.1,0-0.2c-0.8-0.4-1.7,0-2.6-0.3
		c0.3-0.3,0.6-0.5,0.9-0.8c-0.9-0.5-1-0.5-1.6,0.4c-0.5,0.8-0.5,0.9,0,1.7c0.1,0.1,0.2,0.3,0.3,0.4c0.1,0.1,0.2,0.1,0.3,0.2
		c0.9,0,1.9,0,2.8,0C104.7,12,104.5,12,104.2,12z"/>
	<path class="st3" d="M103.8,13.4c-0.4,0-0.8,0-1.2,0C103.2,14,103.3,14,103.8,13.4z"/>
</g>
<path class="st3" d="M69.4,13c-0.6-0.1-1,0.1-1,0.1s0,0.4,0.1,0.9c0.1,0.5,0.3,1,0.9,1.5c1.1,1,2.5,1.1,2.5,1.1s0.2-1.9-0.9-2.9
	C70.4,13.2,69.9,13.1,69.4,13z"/>
<path class="st3" d="M73.1,5.1c0-1.6-1.2-2.5-1.2-2.5s-1.2,0.9-1.2,2.5c0,1.6,1.2,2.5,1.2,2.5S73.1,6.7,73.1,5.1z"/>
<path class="st3" d="M72.1,9c-0.1,0.6,0,1.1,0,1.1s0.1,0,0.3-0.1c0.5-0.1,1.4-0.4,2.1-1c0.8-0.7,0.9-1.5,0.9-2c0-0.2,0-0.3,0-0.3
	s-0.4-0.1-0.9-0.1c-0.5,0-1.1,0.2-1.6,0.6C72.4,7.7,72.2,8.4,72.1,9z"/>
<path class="st3" d="M71.2,9.9c0.4,0.1,0.6,0.1,0.6,0.1s0-0.3,0-0.7c-0.1-0.7-0.3-1.6-0.9-2.2c-1.1-1-2.5-0.6-2.5-0.6S68.2,8,69.3,9
	C70,9.5,70.7,9.8,71.2,9.9z"/>
<path class="st3" d="M73,10.4c-1.1,1-0.9,2.9-0.9,2.9s1.4-0.2,2.5-1.1c1.1-1,0.9-2.4,0.9-2.4S74.1,9.5,73,10.4z"/>
<path class="st3" d="M69.3,12.2c0.2,0.1,0.3,0.3,0.5,0.4c1,0.6,2,0.7,2,0.7s0.1-1.3-0.4-2.3c-0.1-0.2-0.3-0.4-0.5-0.6
	c0,0-0.1,0-0.1-0.1c-1.1-0.9-2.4-0.5-2.4-0.5s-0.2,1.2,0.7,2.2C69.2,12.1,69.3,12.1,69.3,12.2z"/>
<path class="st3" d="M73,13.6c-1.1,1-0.9,2.9-0.9,2.9s1.4-0.2,2.5-1.1c1.1-1,0.9-2.4,0.9-2.4S74.1,12.7,73,13.6z"/>
<path class="st3" d="M102.1,8.9c0.6,0.3,1.2,0.6,1.7,0.9c0.6,0.3,1,0.8,1.2,1.5c0.1,0.3,0,0.5,0.1,0.9c0.2-0.3,0.3-0.5,0.5-0.6
	c0.4-0.4,0.3-0.7,0.1-1.1c-0.5-0.9-1.3-1.4-2.1-1.8c-0.4-0.2-0.8-0.4-1.1-0.6c-0.4-0.3-0.8-0.7-0.9-1.1c-0.4-1.3,0.4-2.6,1.6-3.2
	c0.1,0,0.2-0.1,0.2,0c0.4,0.2,0.7,0.5,1.1,0.7c-0.7,0.2-1.5-0.2-2.1,0.5c0.7,0,1.4,0,2,0c0.4,0,0.6,0.1,0.6,0.5
	c0,0.1,0.1,0.3,0.1,0.4c-1,0-1.9,0-2.8,0c-0.4,0-0.4,0-0.3,0.5c1,0,2.1,0,3.1,0c0,0.1,0,0.2,0,0.3c0,0.6-0.1,0.6-0.6,0.6
	c-0.4,0-0.8,0-1.2,0c-0.3,0-0.7,0-1.1,0c0.8,0.8,1.6,0.3,2.4,0.5c-0.2,0.2-0.4,0.4-0.7,0.5c0.3,0.2,0.5,0.3,0.9,0.5
	c0.3-0.4,0.8-0.8,1-1.4c0.5-1.3,0.2-3.1-1.2-3.9c-1.7-1.1-1-1-2.7,0C100.2,4.5,99.8,7.7,102.1,8.9z"/>
<path class="st3" d="M106.3,11.4c-0.3,0.4-0.6,0.9-1,1.3c-0.7,0.7-1.4,1.3-2,1.9c-0.3-0.2-0.5-0.5-0.7-0.7c-0.4-0.4-0.9-0.7-1.2-1.2
	c-0.5-0.5-0.8-1.1-1.3-1.6c-0.4-0.4-0.8-0.7-1.5-0.6c0.9,0.9,1.2,2,1.5,3c0.4,1.4,1.9,2.6,3.2,2.7c1.5,0,3.1-1.3,3.5-2.8
	c0.2-1,0.6-1.9,1.3-2.7c0,0,0-0.1,0-0.2C107.2,10.5,106.7,10.9,106.3,11.4z"/>
</svg>
