<svg version="1.1" id="Layer_1" xmlns="http://www.w3.org/2000/svg" x="0" y="0" viewBox="0 0 216.9 145.7" xml:space="preserve"><style>.st0{fill:#a6ce39}.st1{fill:#0c6634}</style><path class="st0" d="M128.7 108.4c1.4 2.9 3.6 5.3 6.5 7.4 3 2.1 5.9 3.1 8.8 3.1v.3h-21.1v-.3c2.6 0 4.5-.9 5.6-2.7 1.3-2 1.3-4.5-.2-7.6l-2.7-5.7H103l-2.7 5.7c-1.4 3-1.4 5.6-.2 7.6 1.1 1.8 3 2.7 5.7 2.7v.3H73.1v-.3c2.9 0 5.8-1 8.8-3.1s5.1-4.5 6.5-7.4L108.5 65l6 12.9 14.2 30.5zm-25.6-5.9h22.4l-11.2-24.2-11.2 24.2z"/><path class="st1" d="M79.4 43.4c0 .1.1.1.2.2 2.1 1.9 4.2 3.7 6.6 5.1 1.5.9 3.1 1.7 4.9 2.2.7.2 1.3.4 2 .5s1.4.2 2.1.2c1.4 0 2.8-.1 4.2-.5 1.6-.4 3-1 4.4-1.8.3-.2.7-.3 1.1-.4 1-.2 2-.5 3-.7h.2c.2 0 .3.1.2.3 0 .1-.1.1-.1.2-.8 1.2-1.7 2.3-2.8 3.3-1.3 1.2-2.6 2.3-4.2 3.1-1.8 1-3.7 1.7-5.7 1.9-.7.1-1.4.1-2.1.1-.5 0-.9 0-1.4-.1-.9-.1-1.8-.2-2.7-.5-2.3-.6-4.5-1.5-6.6-2.5-2-1-4-2-6-3.1-1.8-1-3.7-2-5.5-2.9-1.2-.6-2.4-1.1-3.6-1.5-1-.3-1.9-.5-2.9-.6-.1 0-.3 0-.4-.1-.2-.1-.3-.3-.2-.5 0-.1.1-.2.2-.4 1-1.2 1.9-2.4 3-3.6 1.4-1.6 2.9-3.2 4.5-4.7 2.1-2 4.4-3.8 6.9-5.4.3-.2.5-.3.8-.5.2-.2.6-.1.7.3.4 1.4.9 2.7 1.4 4 .6 1.5 1.2 3 2 4.4 1.2 2.2 2.7 4.2 4.6 5.9 1 .9 2.2 1.7 3.4 2.3.1 0 .2.1.2.2s-.2 0-.3 0c-1.8-.1-3.5-.5-5.2-1.2s-3.4-1.5-4.9-2.5c-.5-.3-1-.7-1.5-1-.2.4-.3.3-.5.3zm27-2.7l-.3-2.1c0-.4-.1-.8-.1-1.2l-.6-1.5c-.4-1.3-.7-2.7-.7-4.1 0-.7 0-1.4.1-2.1s.2-1.4.3-2c.4-1.7 1.1-3.4 1.9-5 1.3-2.5 2.9-4.8 4.7-7 0-.1.1-.1.2-.2-.1.1-.1.3-.2.4l-.9 1.5c-.9 1.6-1.7 3.3-2.2 5.1-.5 1.7-.9 3.5-.9 5.3 0 .1 0 .2.1.3.1 0 .1-.1.2-.2.5-1.3 1.2-2.5 2.1-3.6 1.6-2 3.5-3.6 5.6-5 1.4-.9 2.8-1.6 4.3-2.3 1.3-.6 2.6-1.1 3.9-1.7.4-.1.4-.5.2-.7-.2-.2-.3-.5-.5-.8-1.7-2.4-3.6-4.5-5.8-6.5-1.6-1.5-3.3-2.9-5-4.2-1.2-.9-2.5-1.8-3.7-2.7-.1-.1-.2-.2-.4-.2-.2-.1-.4 0-.5.3 0 .1-.1.3-.1.4 0 1-.1 2-.4 3-.3 1.3-.8 2.5-1.2 3.7-.8 1.9-1.6 3.8-2.5 5.7-.9 2-1.9 4.1-2.7 6.2-.9 2.2-1.6 4.4-2.1 6.7-.2.9-.3 1.8-.3 2.7v1.4c0 .7.1 1.4.3 2.1.4 2 1.2 3.9 2.3 5.6.9 1.5 2.1 2.8 3.4 4 .6.6 1.3 1.1 2 1.6-.1-1.1-.3-2-.5-2.9z"/><path class="st0" d="M106.7 43.6c.1-.3.1-.6.2-.8.3-1.1.8-2.2 1.2-3.2.3-.6.6-1.2 1-1.8.4-1.2.9-2.3 1.5-3.4 1.3-2.1 2.9-3.9 5-5.2 1.3-.8 2.7-1.4 4.1-1.9 2.4-.8 4.9-1.2 7.4-1.4.9-.1 1.8-.1 2.8-.1h.6c-.1.1-.2.1-.4.1-2.1.3-4.2.9-6.2 1.8-.4.2-.9.4-1.3.6 1.4-.2 2.9-.3 4.7-.2 1.6.1 3.2.3 5.2.6 2.1.3 4.3.8 6.4 1.2l.6.1c.2 0 .4.1.7.1.1-.5.2-1 .2-1.5.1-.9.2-1.8.2-2.7 0-.5.1-1 .1-1.5v-4.2c0-1-.1-1.9-.1-2.9l-.3-3.6c0-.1 0-.3-.1-.4-.1-.2-.3-.3-.5-.2-.1 0-.3.1-.4.2-.7.6-1.4 1.1-2.2 1.5-1.3.7-2.7 1.2-4.1 1.7-1.7.6-3.4 1.1-5.1 1.5-2.2.6-4.5 1.3-6.7 2-1.6.5-3.2 1.1-4.7 1.8-1.4.6-2.8 1.4-4 2.3-1.8 1.3-3.2 2.9-4.3 4.9-1.1 2-1.8 4.2-2.1 6.6-.1.5-.1 1-.1 1.4v2.1c0 1 .2 2.1.3 3.1.2.4.3.9.4 1.4z"/><path class="st0" d="M108.1 48.2c-.2 0-.5-.1-.7-.1-.5 0-1-.1-1.5-.2-1-.1-2-.3-2.9-.5-.8-.2-1.7-.4-2.5-.7-1.5-.5-2.9-1.2-4.3-2.1-2.1-1.4-3.7-3.1-4.9-5.3-.7-1.3-1.3-2.7-1.7-4.2-.7-2.5-.9-5-1-7.5v-2.8c0-.2 0-.4.1-.6.1.1.1.2.1.4.2 2.2.7 4.3 1.4 6.3.8 2.2 1.9 4.3 3.5 6.1 1.7 2.1 3.8 3.8 6.3 4.9 1.1.5 2.2.9 3.3 1.2.5.1 1.1.2 1.7.3.5.1.9.1 1.4.1h.9l-.1-.3-.2-.2c-.1-.3-.2-.7-.3-1-.2-.6-.3-1.1-.4-1.7v-.2c-.6-.5-1.2-.9-1.8-1.5-1.4-1.3-2.6-2.7-3.6-4.1-1.2-1.9-2-3.9-2.5-5.9-.2-.7-.3-1.5-.3-2.2 0-.4-.1-.9 0-1.5 0-.9.1-1.9.3-2.9.3-1.8.8-3.5 1.4-5-.5-.2-.9-.4-1.4-.6-.8-.3-1.6-.6-2.4-.8-.5-.1-.9-.2-1.4-.4-.8-.2-1.6-.3-2.3-.5-.9-.2-1.8-.3-2.7-.4-.5-.1-1-.1-1.5-.2-.8-.1-1.5-.1-2.3-.2-.6 0-1.3-.1-1.9-.1H81c-1.2 0-2.4 0-3.6.1-.1 0-.3 0-.4.1-.2.1-.3.2-.2.5 0 .1.1.3.2.4.6.7 1 1.5 1.4 2.3.6 1.4 1 2.8 1.4 4.2.5 1.7.9 3.4 1.2 5.2.5 2.3 1 4.5 1.6 6.8.4 1.6.9 3.2 1.5 4.8.6 1.4 1.2 2.8 2.1 4.1 1.2 1.8 2.8 3.4 4.6 4.6 2 1.3 4.1 2 6.4 2.5.5.1 1 .2 1.4.2.7.1 1.4.1 2 .1 1 0 2.1 0 3.1-.2.9-.1 1.8-.3 2.8-.4.4-.1 1.6-.3 1.7-.4.1-.3.1-.4-.1-.5z"/><path class="st1" d="M137.9 40.5c-.1-.2-.3-.3-.5-.4-.8-.5-1.5-1-2.3-1.5-2.1-1.3-4.4-2.5-6.8-3.3-1.4-.5-2.9-.8-4.4-.9-2.5-.2-4.8.2-7.1 1.2-1.5.6-2.8 1.4-4.1 2.4-.7.5-1.3 1.1-2 1.7-.7.7-1.4 1.4-2.1 2.2-.3.4-.7.8-1 1.2-.1.2-.3.5-.5.7 0 0-.2-.1-.2-.7.1-.7 1-4.5 5.4-9.1 1.6-1.7 3.6-3 5.7-3.9 2-.9 4.1-1.4 6.3-1.4 1.5 0 3.1.2 4.6.5 1.6.3 3.2.8 4.8 1.3 2.2.7 4.4 1.6 6.5 2.4 1.7.6 3.3 1.3 5 1.8 1.4.5 2.8.9 4.3 1.1.9.1 1.8.2 2.7.1h.4c.2.1.3.2.3.4 0 .1-.1.2-.2.4-.6 1-1.3 2.1-1.9 3.1-.5.8-1.1 1.6-1.6 2.4-.4.5-.7 1-1.1 1.6-.5.6-.9 1.2-1.4 1.8-.3.4-.6.8-.9 1.1-.6.7-1.2 1.4-1.8 2-.5.6-1.1 1.1-1.7 1.7-.4.3-.7.7-1.1 1-.6.6-1.3 1.1-2 1.6-1.3 1-2.7 1.8-4.2 2.5-1.8.9-3.7 1.5-5.7 1.7s-3.9.2-5.9-.2c-2.2-.5-4.3-1.3-6.3-2.4-.9-.5-1.9-1.1-2.7-1.7-.6-.4-1.3-.9-1.9-1.4s-1.2-1-1.8-1.6c-.2-.2-.3-.3-.4-.5-.3-.4-.3-.8-.1-1.3.1-.4.3-.8.5-1.1.4-.9.9-1.7 1.5-2.5.3-.4.6-.7.9-1.1l1.2-1.2c.9-.8 1.8-1.5 2.8-2.1 2.3-1.4 4.9-2.2 7.6-2.5 2.3-.2 4.7-.1 7 .5 2.1.5 4.1 1.3 6 2.3-.1 0 0 0 .2.1zm28.5 78.7h-21.2v-.4c2.9 0 5.3-1 7.4-3.1 2-2 3.1-4.5 3.1-7.3V64.8l50 39.9v-29c0-2.9-1-5.3-3-7.3s-4.5-3-7.3-3V65h21.2v.4c-2.9 0-5.3 1-7.4 3.1-2 2-3.1 4.5-3.1 7.3v43.7l-50.1-40v29c0 2.8 1 5.3 3.1 7.3 2 2 4.5 3.1 7.4 3.1v.3h-.1zm-144.9 0H.3v-.4c2.9 0 5.3-1 7.4-3.1 2-2 3.1-4.5 3.1-7.3V64.8l50 39.9v-29c0-2.9-1-5.3-3-7.3s-4.5-3-7.3-3V65h21.2v.4c-2.9 0-5.3 1-7.4 3.1-2 2-3.1 4.5-3.1 7.3v43.7l-50.1-40v29c0 2.8 1 5.3 3.1 7.3 2 2 4.5 3.1 7.4 3.1v.3h-.1z"/><path d="M8.4 140.8L2.5 133v5.8c0 .5 0 .8.1 1 0 .2.2.3.4.4s.6.2 1 .2v.3H.9v-.3c.4 0 .7-.1.9-.2.2-.1.3-.2.4-.4 0-.1.1-.5.1-1v-4.4c0-.6 0-1.1-.1-1.3s-.2-.4-.3-.4c-.1-.1-.4-.1-.9-.1v-.3h2.5l5 6.5v-5c0-.4 0-.6-.1-.8-.1-.1-.2-.3-.5-.4s-.5-.1-.8-.1v-.3h3v.3c-.4 0-.6.1-.8.2-.2.1-.3.2-.4.4-.1.2-.1.4-.1.8v6.9h-.4zm4.9-4.5c0-1.3.4-2.3 1.3-3.1.9-.8 1.9-1.2 3.2-1.2 1.3 0 2.4.4 3.3 1.2.9.8 1.3 1.8 1.3 3.2 0 1.3-.4 2.3-1.3 3.1-.8.8-1.9 1.2-3.3 1.2-1.3 0-2.4-.4-3.3-1.2-.8-.8-1.2-1.8-1.2-3.2zm1.4.1c0 1.3.3 2.4.8 3 .5.7 1.3 1 2.4 1 .9 0 1.7-.3 2.2-1 .5-.7.8-1.7.8-3s-.3-2.3-.8-3c-.5-.7-1.3-1-2.3-1-1 0-1.8.3-2.3 1-.5.6-.8 1.6-.8 3zm20.1 4.2h-2.3c-.4-.3-1-1-1.8-2.2-.3-.4-.5-.7-.8-1.1-.3-.3-.5-.6-.6-.6-.1-.1-.3-.1-.5-.1h-.3v3.2c0 .2.1.4.2.5.1.1.4.1.8.1h.4v.3h-4v-.3h.3c.4 0 .6 0 .7-.1.1-.1.2-.2.3-.4 0-.2.1-.6.1-1.3v-4.1c0-.7 0-1.1-.1-1.3 0-.2-.1-.3-.2-.4s-.4-.1-.8-.1H26v-.3l1.2-.1c.8 0 1.4-.1 1.9-.1.8 0 1.4.1 1.9.2s.9.4 1.2.7c.3.3.5.7.5 1.2s-.2 1-.6 1.4c-.4.4-1 .6-1.8.7.3.2.9.8 1.7 1.8.6.9 1.1 1.4 1.5 1.7.4.3.8.4 1.3.4v.3zm-6.4-4.4h1c.3 0 .6-.1.9-.1l.6-.3c.2-.1.3-.3.4-.6.1-.2.1-.5.1-.9 0-.6-.1-1.1-.4-1.4-.3-.4-.9-.5-1.9-.5h-.5v3.8zm8.2-2h-.3v-2h8.1v2h-.3c-.1-.6-.2-.9-.4-1.2-.2-.2-.3-.4-.5-.5-.2-.1-.5-.1-1-.1H41v7.2c0 .2.1.4.2.5.1.1.4.1.8.1h.4v.3h-4.2v-.3h.4c.4 0 .6 0 .7-.1.1-.1.2-.2.3-.4 0-.2.1-.6.1-1.3v-5.9h-1.2c-.5 0-.9 0-1.1.1-.2.1-.4.2-.5.5-.1.2-.2.6-.3 1.1zm18 2.2h-4.4v3.3c0 .2.1.4.3.5.1.1.4.1.8.1h.2v.3h-3.8v-.3h.3c.4 0 .6 0 .7-.1.1-.1.2-.2.3-.4 0-.2.1-.6.1-1.3v-4.1c0-.7 0-1.1-.1-1.3 0-.2-.1-.3-.2-.4s-.4-.1-.8-.1h-.2v-.3h3.8v.3h-.2c-.4 0-.7 0-.8.1-.1.1-.2.2-.3.4 0 .2-.1.6-.1 1.3v1.7h4.4v-1.7c0-.7 0-1.1-.1-1.3 0-.2-.1-.3-.2-.4-.1-.1-.4-.1-.8-.1h-.2v-.3h3.8v.3H57c-.4 0-.7 0-.8.1-.1.1-.2.2-.3.4 0 .2-.1.6-.1 1.3v5.4c0 .2.1.4.3.5.1.1.4.1.8.1h.2v.3h-3.8v-.3h.3c.4 0 .6 0 .7-.1.1-.1.2-.2.3-.4 0-.2.1-.6.1-1.3v-2.2zm16.6 1.1H68l-.2.5c-.3.8-.5 1.3-.5 1.5 0 .3.1.4.3.6.2.1.4.2.7.2v.3h-2.5v-.3c.4-.1.6-.2.8-.4.2-.2.4-.6.7-1.3 0-.1.1-.3.3-.7l2.4-5.8h.2l2.8 6.6.4.9c.1.2.2.4.3.5.1.1.4.2.7.2v.3h-3.3v-.3c.4 0 .7 0 .8-.1.1-.1.2-.2.2-.4 0-.1-.1-.4-.3-.8l-.6-1.5zm-.1-.3l-1.5-3.6-1.5 3.6h3zm11.5 1.9l3-6.9h2.6v.3H88c-.4 0-.7 0-.8.1-.1.1-.2.2-.3.4 0 .2-.1.6-.1 1.3v5.4c0 .2.1.4.2.5.1.1.4.1.8.1h.4v.3h-4v-.3h.3c.4 0 .6 0 .7-.1.1-.1.2-.2.3-.4 0-.2.1-.6.1-1.3v-5.3l-3.3 7.5H82l-3.3-7.5v4.9c0 .7 0 1.1.1 1.4 0 .2.2.5.4.6.2.2.5.3.9.3v.3h-3v-.3c.4 0 .6-.1.9-.3.2-.2.4-.4.4-.6 0-.3.1-.7.1-1.4v-3.6c0-.7 0-1.1-.1-1.3 0-.2-.1-.3-.2-.4-.1-.1-.4-.1-.8-.1H77v-.3h2.5l3.1 6.7zm15.6-1.1h.3l-.2 2.6h-6.9v-.3h.2c.4 0 .7-.1.8-.2.1-.1.2-.3.2-.4v-5.4c0-.6 0-1.1-.1-1.3 0-.2-.1-.3-.2-.4s-.4-.1-.8-.1v-.3h6l.2 2.1h-.3c-.1-.6-.3-1-.5-1.2-.2-.2-.4-.4-.7-.5-.3-.1-.7-.1-1.3-.1h-1.2v3.5h.9c.4 0 .7 0 .9-.1.2-.1.3-.2.3-.3.1-.1.1-.4.1-.8h.3v2.9H96c0-.5 0-.8-.1-.9-.1-.2-.2-.3-.3-.3-.1 0-.4-.1-.8-.1h-.9v2c0 1 .1 1.6.2 1.7.1.2.5.3 1 .3h.6c.4 0 .8-.1 1.1-.2.3-.1.6-.3.8-.7.3-.4.5-.9.6-1.5zm12.4 2.6h-2.3c-.4-.3-1-1-1.8-2.2-.3-.4-.5-.7-.8-1.1-.3-.3-.5-.6-.6-.6-.1-.1-.3-.1-.5-.1h-.3v3.2c0 .2.1.4.2.5.1.1.4.1.8.1h.4v.3h-4v-.3h.3c.4 0 .6 0 .7-.1.1-.1.2-.2.3-.4 0-.2.1-.6.1-1.3v-4.1c0-.7 0-1.1-.1-1.3 0-.2-.1-.3-.2-.4s-.4-.1-.8-.1h-.1v-.3l1.2-.1c.8 0 1.4-.1 1.9-.1.8 0 1.4.1 1.9.2s.9.4 1.2.7c.3.3.5.7.5 1.2s-.2 1-.6 1.4c-.4.4-1 .6-1.8.7.3.2.9.8 1.7 1.8.6.9 1.1 1.4 1.5 1.7.4.3.8.4 1.3.4v.3zm-6.3-4.4h1c.3 0 .6-.1.9-.1l.6-.3c.2-.1.3-.3.4-.6.1-.2.1-.5.1-.9 0-.6-.1-1.1-.4-1.4-.3-.4-.9-.5-1.9-.5h-.5v3.8zm9.2-3.7v-.3h3.8v.3h-.2c-.4 0-.7 0-.8.1-.1.1-.2.2-.3.4 0 .2-.1.6-.1 1.3v5.4c0 .2.1.4.2.5.1.1.4.1.8.1h.2v.3h-3.8v-.3h.2c.4 0 .6 0 .7-.1.1-.1.2-.2.3-.4 0-.2.1-.6.1-1.3v-4.1c0-.7 0-1.1-.1-1.3 0-.2-.1-.3-.2-.4-.1-.1-.4-.1-.8-.1zm14.7 4.9h.3v2.9h-.3c-.1-.3-.2-.6-.4-.9-.7.8-1.7 1.2-2.8 1.2-1.2 0-2.2-.4-3-1.1-.8-.8-1.2-1.8-1.2-3 0-.8.2-1.6.5-2.3.4-.7.8-1.3 1.5-1.6.6-.4 1.3-.5 2.1-.5.6 0 1.2.1 1.7.4.5.3.9.5 1.1.9.2-.3.3-.7.3-1.1h.3l.1 3.2h-.3c-.2-1.1-.6-1.9-1.1-2.4-.6-.4-1.2-.7-1.9-.7-.9 0-1.6.4-2.1 1.1s-.8 1.7-.8 3.1c0 1.3.3 2.2.8 2.9.6.7 1.3 1 2.1 1 .4 0 .9-.1 1.4-.3.5-.2.8-.6 1.1-1.1.4-.7.5-1.2.6-1.7zm9 .1H134l-.2.5c-.3.8-.5 1.3-.5 1.5 0 .3.1.4.3.6.2.1.4.2.7.2v.3h-2.5v-.3c.4-.1.6-.2.8-.4.2-.2.4-.6.7-1.3 0-.1.1-.3.3-.7l2.4-5.8h.2l2.8 6.6.4.9c.1.2.2.4.3.5.1.1.4.2.7.2v.3h-3.3v-.3c.4 0 .7 0 .8-.1.1-.1.2-.2.2-.4 0-.1-.1-.4-.3-.8l-.6-1.5zm-.1-.3l-1.5-3.6-1.5 3.6h3zm13.6 3.6l-5.9-7.8v5.8c0 .5 0 .8.1 1 0 .2.2.3.4.4s.6.2 1 .2v.3h-3.1v-.3c.4 0 .7-.1.9-.2.2-.1.3-.2.4-.4 0-.1.1-.5.1-1v-4.4c0-.6 0-1.1-.1-1.3-.1-.2-.2-.4-.3-.4-.1-.1-.4-.1-.9-.1v-.3h2.5l5 6.5v-5c0-.4 0-.6-.1-.8-.1-.1-.2-.3-.5-.4s-.5-.1-.8-.1v-.3h3v.3c-.4 0-.6.1-.8.2s-.3.2-.4.4c-.1.2-.1.4-.1.8v6.9h-.4zm17.6 0l-5.9-7.8v5.8c0 .5 0 .8.1 1 0 .2.2.3.4.4.2.1.6.2 1 .2v.3h-3.1v-.3c.4 0 .7-.1.9-.2.2-.1.3-.2.4-.4 0-.1.1-.5.1-1v-4.4c0-.6 0-1.1-.1-1.3s-.2-.4-.3-.4c-.1-.1-.4-.1-.9-.1v-.3h2.5l5 6.5v-5c0-.4 0-.6-.1-.8-.1-.1-.2-.3-.5-.4s-.5-.1-.8-.1v-.3h3v.3c-.4 0-.6.1-.8.2s-.3.2-.4.4c-.1.2-.1.4-.1.8v6.9h-.4zm10.9-8.6h2.8v.3c-.4 0-.6.1-.8.3-.2.1-.3.3-.3.5s-.1.5-.1 1v2.8c0 .7 0 1.2-.1 1.6-.1.3-.2.7-.5 1-.3.3-.6.6-1.1.8-.5.2-1 .3-1.7.3s-1.4-.1-1.9-.4c-.5-.3-.9-.6-1.1-1-.2-.4-.3-.9-.3-1.6v-3.5c0-.7 0-1.1-.1-1.3 0-.2-.1-.3-.2-.4s-.4-.1-.8-.1h-.2v-.3h3.8v.3h-.2c-.4 0-.7 0-.8.1-.1.1-.2.2-.3.4 0 .2-.1.6-.1 1.3v2.6c0 .9 0 1.6.1 1.9.1.4.3.7.7 1 .4.3.9.4 1.6.4.5 0 1-.1 1.4-.3.4-.2.7-.4.9-.7.2-.3.3-.6.4-.9 0-.3.1-.8.1-1.4v-2.8c0-.5 0-.8-.1-1-.1-.2-.2-.3-.3-.5-.2-.1-.5-.2-.8-.2v-.2zm6.2 2h-.3v-2h8.1v2h-.3c-.1-.6-.2-.9-.4-1.2-.2-.2-.3-.4-.5-.5-.2-.1-.5-.1-1-.1h-1.3v7.2c0 .2.1.4.3.5s.4.1.8.1h.4v.3H187v-.3h.4c.4 0 .6 0 .7-.1.1-.1.2-.2.3-.4 0-.2.1-.6.1-1.3v-5.9h-1.2c-.5 0-.9 0-1.1.1-.2.1-.4.2-.5.5-.1.2-.2.6-.3 1.1zm20 6.4h-2.3c-.4-.3-1-1-1.8-2.2-.3-.4-.5-.7-.8-1.1-.3-.3-.5-.6-.6-.6-.1-.1-.3-.1-.5-.1h-.4v3.2c0 .2.1.4.2.5.1.1.4.1.8.1h.4v.3h-4v-.3h.3c.4 0 .6 0 .7-.1.1-.1.2-.2.3-.4 0-.2.1-.6.1-1.3v-4.1c0-.7 0-1.1-.1-1.3 0-.2-.1-.3-.2-.4-.1-.1-.4-.1-.8-.1h-.1v-.3l1.2-.1c.8 0 1.4-.1 1.9-.1.8 0 1.4.1 1.9.2s.9.4 1.2.7c.3.3.5.7.5 1.2s-.2 1-.6 1.4c-.4.4-1 .6-1.8.7.3.2.9.8 1.7 1.8.6.9 1.1 1.4 1.5 1.7.4.3.8.4 1.3.4v.3zm-6.4-4.4h1c.3 0 .6-.1.9-.1l.6-.3c.1-.1.3-.3.4-.6.1-.2.1-.5.1-.9 0-.6-.1-1.1-.4-1.4-.3-.4-.9-.5-1.9-.5h-.5v3.8zm14.4 1.3h-3.2l-.2.5c-.3.8-.5 1.3-.5 1.5 0 .3.1.4.3.6.2.1.4.2.7.2v.3H208v-.3c.4-.1.6-.2.8-.4.2-.2.4-.6.7-1.3 0-.1.1-.3.3-.7l2.4-5.8h.2l2.8 6.6.4.9c.1.2.2.4.3.5.1.1.4.2.7.2v.3h-3.3v-.3c.4 0 .7 0 .8-.1.1-.1.2-.2.2-.4 0-.1-.1-.4-.3-.8l-.6-1.5zm-.2-.3l-1.5-3.6-1.5 3.6h3z" fill="#231f20"/></svg>