<?xml version="1.0" encoding="utf-8"?>
<!-- Generator: Adobe Illustrator 23.0.2, SVG Export Plug-In . SVG Version: 6.00 Build 0)  -->
<svg version="1.1" id="Layer_1" xmlns="http://www.w3.org/2000/svg" xmlns:xlink="http://www.w3.org/1999/xlink" x="0px" y="0px"
	 viewBox="0 0 216.9 145.7" style="enable-background:new 0 0 216.9 145.7;" xml:space="preserve">
<style type="text/css">
	.st0{fill:#A6CE39;}
	.st1{fill:#0C6634;}
	.st2{fill:#231F20;}
</style>
<g>
	<path class="st0" d="M128.7,108.4c1.4,2.9,3.6,5.3,6.5,7.4c3,2.1,5.9,3.1,8.8,3.1v0.3h-21.1v-0.3c2.6,0,4.5-0.9,5.6-2.7
		c1.3-2,1.3-4.5-0.2-7.6l-2.7-5.7H103l-2.7,5.7c-1.4,3-1.4,5.6-0.2,7.6c1.1,1.8,3,2.7,5.7,2.7v0.3H95.4H83.3H73.1v-0.3
		c2.9,0,5.8-1,8.8-3.1s5.1-4.5,6.5-7.4L108.5,65l6,12.9L128.7,108.4z M103.1,102.5h22.4l-11.2-24.2L103.1,102.5z"/>
</g>
<g>
	<path class="st1" d="M79.4,43.4c0,0.1,0.1,0.1,0.2,0.2c2.1,1.9,4.2,3.7,6.6,5.1c1.5,0.9,3.1,1.7,4.9,2.2c0.7,0.2,1.3,0.4,2,0.5
		s1.4,0.2,2.1,0.2c1.4,0,2.8-0.1,4.2-0.5c1.6-0.4,3-1,4.4-1.8c0.3-0.2,0.7-0.3,1.1-0.4c1-0.2,2-0.5,3-0.7c0.1,0,0.1,0,0.2,0
		c0.2,0,0.3,0.1,0.2,0.3c0,0.1-0.1,0.1-0.1,0.2c-0.8,1.2-1.7,2.3-2.8,3.3c-1.3,1.2-2.6,2.3-4.2,3.1c-1.8,1-3.7,1.7-5.7,1.9
		c-0.7,0.1-1.4,0.1-2.1,0.1c-0.5,0-0.9,0-1.4-0.1c-0.9-0.1-1.8-0.2-2.7-0.5C87,55.9,84.8,55,82.7,54c-2-1-4-2-6-3.1
		c-1.8-1-3.7-2-5.5-2.9c-1.2-0.6-2.4-1.1-3.6-1.5c-1-0.3-1.9-0.5-2.9-0.6c-0.1,0-0.3,0-0.4-0.1c-0.2-0.1-0.3-0.3-0.2-0.5
		c0-0.1,0.1-0.2,0.2-0.4c1-1.2,1.9-2.4,3-3.6c1.4-1.6,2.9-3.2,4.5-4.7c2.1-2,4.4-3.8,6.9-5.4c0.3-0.2,0.5-0.3,0.8-0.5
		c0.2-0.2,0.6-0.1,0.7,0.3c0.4,1.4,0.9,2.7,1.4,4c0.6,1.5,1.2,3,2,4.4c1.2,2.2,2.7,4.2,4.6,5.9c1,0.9,2.2,1.7,3.4,2.3
		c0.1,0,0.2,0.1,0.2,0.2c0,0.1-0.2,0-0.3,0c-1.8-0.1-3.5-0.5-5.2-1.2s-3.4-1.5-4.9-2.5c-0.5-0.3-1-0.7-1.5-1
		C79.7,43.5,79.6,43.4,79.4,43.4z"/>
	<g>
		<path class="st1" d="M106.4,40.7c-0.1-0.7-0.2-1.4-0.3-2.1c0-0.4-0.1-0.8-0.1-1.2c-0.2-0.5-0.4-1-0.6-1.5
			c-0.4-1.3-0.7-2.7-0.7-4.1c0-0.7,0-1.4,0.1-2.1s0.2-1.4,0.3-2c0.4-1.7,1.1-3.4,1.9-5c1.3-2.5,2.9-4.8,4.7-7c0-0.1,0.1-0.1,0.2-0.2
			c-0.1,0.1-0.1,0.3-0.2,0.4c-0.3,0.5-0.6,1-0.9,1.5c-0.9,1.6-1.7,3.3-2.2,5.1c-0.5,1.7-0.9,3.5-0.9,5.3c0,0.1,0,0.2,0.1,0.3
			c0.1,0,0.1-0.1,0.2-0.2c0.5-1.3,1.2-2.5,2.1-3.6c1.6-2,3.5-3.6,5.6-5c1.4-0.9,2.8-1.6,4.3-2.3c1.3-0.6,2.6-1.1,3.9-1.7
			c0.4-0.1,0.4-0.5,0.2-0.7c-0.2-0.2-0.3-0.5-0.5-0.8c-1.7-2.4-3.6-4.5-5.8-6.5c-1.6-1.5-3.3-2.9-5-4.2c-1.2-0.9-2.5-1.8-3.7-2.7
			c-0.1-0.1-0.2-0.2-0.4-0.2c-0.2-0.1-0.4,0-0.5,0.3c0,0.1-0.1,0.3-0.1,0.4c0,1-0.1,2-0.4,3c-0.3,1.3-0.8,2.5-1.2,3.7
			c-0.8,1.9-1.6,3.8-2.5,5.7c-0.9,2-1.9,4.1-2.7,6.2c-0.9,2.2-1.6,4.4-2.1,6.7c-0.2,0.9-0.3,1.8-0.3,2.7c0,0.5,0,0.9,0,1.4
			c0,0.7,0.1,1.4,0.3,2.1c0.4,2,1.2,3.9,2.3,5.6c0.9,1.5,2.1,2.8,3.4,4c0.6,0.6,1.3,1.1,2,1.6C106.8,42.5,106.6,41.6,106.4,40.7z"/>
	</g>
	<g>
		<g>
			<path class="st0" d="M106.7,43.6c0.1-0.3,0.1-0.6,0.2-0.8c0.3-1.1,0.8-2.2,1.2-3.2c0.3-0.6,0.6-1.2,1-1.8
				c0.4-1.2,0.9-2.3,1.5-3.4c1.3-2.1,2.9-3.9,5-5.2c1.3-0.8,2.7-1.4,4.1-1.9c2.4-0.8,4.9-1.2,7.4-1.4c0.9-0.1,1.8-0.1,2.8-0.1
				c0.2,0,0.4,0,0.6,0c-0.1,0.1-0.2,0.1-0.4,0.1c-2.1,0.3-4.2,0.9-6.2,1.8c-0.4,0.2-0.9,0.4-1.3,0.6c1.4-0.2,2.9-0.3,4.7-0.2
				c1.6,0.1,3.2,0.3,5.2,0.6c2.1,0.3,4.3,0.8,6.4,1.2l0.6,0.1c0.2,0,0.4,0.1,0.7,0.1c0.1-0.5,0.2-1,0.2-1.5c0.1-0.9,0.2-1.8,0.2-2.7
				c0-0.5,0.1-1,0.1-1.5c0-0.8,0-1.5,0-2.3c0-0.6,0-1.3,0-1.9c0-1-0.1-1.9-0.1-2.9c-0.1-1.2-0.2-2.4-0.3-3.6c0-0.1,0-0.3-0.1-0.4
				c-0.1-0.2-0.3-0.3-0.5-0.2c-0.1,0-0.3,0.1-0.4,0.2c-0.7,0.6-1.4,1.1-2.2,1.5c-1.3,0.7-2.7,1.2-4.1,1.7c-1.7,0.6-3.4,1.1-5.1,1.5
				c-2.2,0.6-4.5,1.3-6.7,2c-1.6,0.5-3.2,1.1-4.7,1.8c-1.4,0.6-2.8,1.4-4,2.3c-1.8,1.3-3.2,2.9-4.3,4.9c-1.1,2-1.8,4.2-2.1,6.6
				c-0.1,0.5-0.1,1-0.1,1.4c0,0.7,0,1.4,0,2.1c0,1,0.2,2.1,0.3,3.1C106.5,42.6,106.6,43.1,106.7,43.6z"/>
		</g>
	</g>
	<g>
		<path class="st0" d="M108.1,48.2c-0.2,0-0.5-0.1-0.7-0.1c-0.5,0-1-0.1-1.5-0.2c-1-0.1-2-0.3-2.9-0.5c-0.8-0.2-1.7-0.4-2.5-0.7
			c-1.5-0.5-2.9-1.2-4.3-2.1c-2.1-1.4-3.7-3.1-4.9-5.3c-0.7-1.3-1.3-2.7-1.7-4.2c-0.7-2.5-0.9-5-1-7.5c0-0.9,0-1.9,0-2.8
			c0-0.2,0-0.4,0.1-0.6c0.1,0.1,0.1,0.2,0.1,0.4c0.2,2.2,0.7,4.3,1.4,6.3c0.8,2.2,1.9,4.3,3.5,6.1c1.7,2.1,3.8,3.8,6.3,4.9
			c1.1,0.5,2.2,0.9,3.3,1.2c0.5,0.1,1.1,0.2,1.7,0.3c0.5,0.1,0.9,0.1,1.4,0.1c0.3,0,0.6,0,0.9,0l-0.1-0.3L107,43
			c-0.1-0.3-0.2-0.7-0.3-1c-0.2-0.6-0.3-1.1-0.4-1.7c0-0.1,0-0.1,0-0.2c-0.6-0.5-1.2-0.9-1.8-1.5c-1.4-1.3-2.6-2.7-3.6-4.1
			c-1.2-1.9-2-3.9-2.5-5.9c-0.2-0.7-0.3-1.5-0.3-2.2c0-0.4-0.1-0.9,0-1.5c0-0.9,0.1-1.9,0.3-2.9c0.3-1.8,0.8-3.5,1.4-5
			c-0.5-0.2-0.9-0.4-1.4-0.6c-0.8-0.3-1.6-0.6-2.4-0.8c-0.5-0.1-0.9-0.2-1.4-0.4c-0.8-0.2-1.6-0.3-2.3-0.5c-0.9-0.2-1.8-0.3-2.7-0.4
			c-0.5-0.1-1-0.1-1.5-0.2c-0.8-0.1-1.5-0.1-2.3-0.2c-0.6,0-1.3-0.1-1.9-0.1c-1,0-1.9,0-2.9,0c-1.2,0-2.4,0-3.6,0.1
			c-0.1,0-0.3,0-0.4,0.1c-0.2,0.1-0.3,0.2-0.2,0.5c0,0.1,0.1,0.3,0.2,0.4c0.6,0.7,1,1.5,1.4,2.3c0.6,1.4,1,2.8,1.4,4.2
			c0.5,1.7,0.9,3.4,1.2,5.2c0.5,2.3,1,4.5,1.6,6.8c0.4,1.6,0.9,3.2,1.5,4.8c0.6,1.4,1.2,2.8,2.1,4.1c1.2,1.8,2.8,3.4,4.6,4.6
			c2,1.3,4.1,2,6.4,2.5c0.5,0.1,1,0.2,1.4,0.2c0.7,0.1,1.4,0.1,2,0.1c1,0,2.1,0,3.1-0.2c0.9-0.1,1.8-0.3,2.8-0.4
			c0.4-0.1,1.6-0.3,1.7-0.4C108.3,48.4,108.3,48.3,108.1,48.2z"/>
	</g>
	<path class="st1" d="M137.9,40.5c-0.1-0.2-0.3-0.3-0.5-0.4c-0.8-0.5-1.5-1-2.3-1.5c-2.1-1.3-4.4-2.5-6.8-3.3
		c-1.4-0.5-2.9-0.8-4.4-0.9c-2.5-0.2-4.8,0.2-7.1,1.2c-1.5,0.6-2.8,1.4-4.1,2.4c-0.7,0.5-1.3,1.1-2,1.7c-0.7,0.7-1.4,1.4-2.1,2.2
		c-0.3,0.4-0.7,0.8-1,1.2c-0.1,0.2-0.3,0.5-0.5,0.7c0,0-0.2-0.1-0.2-0.7c0.1-0.7,1-4.5,5.4-9.1c1.6-1.7,3.6-3,5.7-3.9
		c2-0.9,4.1-1.4,6.3-1.4c1.5,0,3.1,0.2,4.6,0.5c1.6,0.3,3.2,0.8,4.8,1.3c2.2,0.7,4.4,1.6,6.5,2.4c1.7,0.6,3.3,1.3,5,1.8
		c1.4,0.5,2.8,0.9,4.3,1.1c0.9,0.1,1.8,0.2,2.7,0.1c0.1,0,0.3,0,0.4,0c0.2,0.1,0.3,0.2,0.3,0.4c0,0.1-0.1,0.2-0.2,0.4
		c-0.6,1-1.3,2.1-1.9,3.1c-0.5,0.8-1.1,1.6-1.6,2.4c-0.4,0.5-0.7,1-1.1,1.6c-0.5,0.6-0.9,1.2-1.4,1.8c-0.3,0.4-0.6,0.8-0.9,1.1
		c-0.6,0.7-1.2,1.4-1.8,2c-0.5,0.6-1.1,1.1-1.7,1.7c-0.4,0.3-0.7,0.7-1.1,1c-0.6,0.6-1.3,1.1-2,1.6c-1.3,1-2.7,1.8-4.2,2.5
		c-1.8,0.9-3.7,1.5-5.7,1.7s-3.9,0.2-5.9-0.2c-2.2-0.5-4.3-1.3-6.3-2.4c-0.9-0.5-1.9-1.1-2.7-1.7c-0.6-0.4-1.3-0.9-1.9-1.4
		s-1.2-1-1.8-1.6c-0.2-0.2-0.3-0.3-0.4-0.5c-0.3-0.4-0.3-0.8-0.1-1.3c0.1-0.4,0.3-0.8,0.5-1.1c0.4-0.9,0.9-1.7,1.5-2.5
		c0.3-0.4,0.6-0.7,0.9-1.1c0.4-0.4,0.8-0.8,1.2-1.2c0.9-0.8,1.8-1.5,2.8-2.1c2.3-1.4,4.9-2.2,7.6-2.5c2.3-0.2,4.7-0.1,7,0.5
		c2.1,0.5,4.1,1.3,6,2.3C137.6,40.4,137.7,40.4,137.9,40.5z"/>
</g>
<path class="st1" d="M166.4,119.2h-21.2v-0.4c2.9,0,5.3-1,7.4-3.1c2-2,3.1-4.5,3.1-7.3V64.8l50,39.9v-29c0-2.9-1-5.3-3-7.3
	s-4.5-3-7.3-3V65h21.2v0.4c-2.9,0-5.3,1-7.4,3.1c-2,2-3.1,4.5-3.1,7.3v43.7l-50.1-40v29c0,2.8,1,5.3,3.1,7.3c2,2,4.5,3.1,7.4,3.1
	v0.3H166.4z"/>
<path class="st1" d="M21.5,119.2H0.3v-0.4c2.9,0,5.3-1,7.4-3.1c2-2,3.1-4.5,3.1-7.3V64.8l50,39.9v-29c0-2.9-1-5.3-3-7.3
	s-4.5-3-7.3-3V65h21.2v0.4c-2.9,0-5.3,1-7.4,3.1c-2,2-3.1,4.5-3.1,7.3v43.7l-50.1-40v29c0,2.8,1,5.3,3.1,7.3c2,2,4.5,3.1,7.4,3.1
	v0.3H21.5z"/>
<g>
	<path class="st2" d="M8.4,140.8l-5.9-7.8v5.8c0,0.5,0,0.8,0.1,1c0,0.2,0.2,0.3,0.4,0.4s0.6,0.2,1,0.2v0.3H0.9v-0.3
		c0.4,0,0.7-0.1,0.9-0.2c0.2-0.1,0.3-0.2,0.4-0.4c0-0.1,0.1-0.5,0.1-1v-4.4c0-0.6,0-1.1-0.1-1.3s-0.2-0.4-0.3-0.4
		c-0.1-0.1-0.4-0.1-0.9-0.1v-0.3h2.5l5,6.5v-5c0-0.4,0-0.6-0.1-0.8c-0.1-0.1-0.2-0.3-0.5-0.4s-0.5-0.1-0.8-0.1v-0.3h3v0.3
		c-0.4,0-0.6,0.1-0.8,0.2c-0.2,0.1-0.3,0.2-0.4,0.4c-0.1,0.2-0.1,0.4-0.1,0.8v6.9H8.4z"/>
	<path class="st2" d="M13.3,136.3c0-1.3,0.4-2.3,1.3-3.1c0.9-0.8,1.9-1.2,3.2-1.2c1.3,0,2.4,0.4,3.3,1.2c0.9,0.8,1.3,1.8,1.3,3.2
		c0,1.3-0.4,2.3-1.3,3.1c-0.8,0.8-1.9,1.2-3.3,1.2c-1.3,0-2.4-0.4-3.3-1.2C13.7,138.7,13.3,137.7,13.3,136.3z M14.7,136.4
		c0,1.3,0.3,2.4,0.8,3c0.5,0.7,1.3,1,2.4,1c0.9,0,1.7-0.3,2.2-1c0.5-0.7,0.8-1.7,0.8-3c0-1.3-0.3-2.3-0.8-3c-0.5-0.7-1.3-1-2.3-1
		c-1,0-1.8,0.3-2.3,1C15,134,14.7,135,14.7,136.4z"/>
	<path class="st2" d="M34.8,140.6h-2.3c-0.4-0.3-1-1-1.8-2.2c-0.3-0.4-0.5-0.7-0.8-1.1c-0.3-0.3-0.5-0.6-0.6-0.6
		c-0.1-0.1-0.3-0.1-0.5-0.1h-0.3v1.9c0,0.7,0,1.1,0,1.3c0,0.2,0.1,0.4,0.2,0.5c0.1,0.1,0.4,0.1,0.8,0.1h0.4v0.3h-4v-0.3h0.3
		c0.4,0,0.6,0,0.7-0.1c0.1-0.1,0.2-0.2,0.3-0.4c0-0.2,0.1-0.6,0.1-1.3v-4.1c0-0.7,0-1.1-0.1-1.3c0-0.2-0.1-0.3-0.2-0.4
		s-0.4-0.1-0.8-0.1H26v-0.3l1.2-0.1c0.8,0,1.4-0.1,1.9-0.1c0.8,0,1.4,0.1,1.9,0.2c0.5,0.1,0.9,0.4,1.2,0.7c0.3,0.3,0.5,0.7,0.5,1.2
		c0,0.5-0.2,1-0.6,1.4c-0.4,0.4-1,0.6-1.8,0.7c0.3,0.2,0.9,0.8,1.7,1.8c0.6,0.9,1.1,1.4,1.5,1.7c0.4,0.3,0.8,0.4,1.3,0.4V140.6z
		 M28.4,136.2c0.3,0,0.6,0,1,0c0.3,0,0.6-0.1,0.9-0.1c0.2-0.1,0.4-0.2,0.6-0.3c0.2-0.1,0.3-0.3,0.4-0.6c0.1-0.2,0.1-0.5,0.1-0.9
		c0-0.6-0.1-1.1-0.4-1.4c-0.3-0.4-0.9-0.5-1.9-0.5c-0.2,0-0.3,0-0.5,0V136.2z"/>
	<path class="st2" d="M36.6,134.2h-0.3l0-2h8.1l0,2h-0.3c-0.1-0.6-0.2-0.9-0.4-1.2c-0.2-0.2-0.3-0.4-0.5-0.5c-0.2-0.1-0.5-0.1-1-0.1
		H41v5.9c0,0.7,0,1.1,0,1.3c0,0.2,0.1,0.4,0.2,0.5c0.1,0.1,0.4,0.1,0.8,0.1h0.4v0.3h-4.2v-0.3h0.4c0.4,0,0.6,0,0.7-0.1
		c0.1-0.1,0.2-0.2,0.3-0.4c0-0.2,0.1-0.6,0.1-1.3v-5.9h-1.2c-0.5,0-0.9,0-1.1,0.1c-0.2,0.1-0.4,0.2-0.5,0.5
		C36.8,133.3,36.7,133.7,36.6,134.2z"/>
	<path class="st2" d="M54.6,136.4h-4.4v2c0,0.7,0,1.1,0,1.3c0,0.2,0.1,0.4,0.3,0.5c0.1,0.1,0.4,0.1,0.8,0.1h0.2v0.3h-3.8v-0.3H48
		c0.4,0,0.6,0,0.7-0.1c0.1-0.1,0.2-0.2,0.3-0.4c0-0.2,0.1-0.6,0.1-1.3v-4.1c0-0.7,0-1.1-0.1-1.3c0-0.2-0.1-0.3-0.2-0.4
		s-0.4-0.1-0.8-0.1h-0.2v-0.3h3.8v0.3h-0.2c-0.4,0-0.7,0-0.8,0.1c-0.1,0.1-0.2,0.2-0.3,0.4c0,0.2-0.1,0.6-0.1,1.3v1.7h4.4v-1.7
		c0-0.7,0-1.1-0.1-1.3c0-0.2-0.1-0.3-0.2-0.4c-0.1-0.1-0.4-0.1-0.8-0.1h-0.2v-0.3h3.8v0.3h-0.1c-0.4,0-0.7,0-0.8,0.1
		c-0.1,0.1-0.2,0.2-0.3,0.4c0,0.2-0.1,0.6-0.1,1.3v4.1c0,0.7,0,1.1,0,1.3c0,0.2,0.1,0.4,0.3,0.5c0.1,0.1,0.4,0.1,0.8,0.1h0.2v0.3
		h-3.8v-0.3h0.3c0.4,0,0.6,0,0.7-0.1c0.1-0.1,0.2-0.2,0.3-0.4c0-0.2,0.1-0.6,0.1-1.3V136.4z"/>
	<path class="st2" d="M71.2,137.5H68l-0.2,0.5c-0.3,0.8-0.5,1.3-0.5,1.5c0,0.3,0.1,0.4,0.3,0.6c0.2,0.1,0.4,0.2,0.7,0.2v0.3h-2.5
		v-0.3c0.4-0.1,0.6-0.2,0.8-0.4c0.2-0.2,0.4-0.6,0.7-1.3c0-0.1,0.1-0.3,0.3-0.7l2.4-5.8h0.2l2.8,6.6l0.4,0.9
		c0.1,0.2,0.2,0.4,0.3,0.5c0.1,0.1,0.4,0.2,0.7,0.2v0.3h-3.3v-0.3c0.4,0,0.7,0,0.8-0.1c0.1-0.1,0.2-0.2,0.2-0.4
		c0-0.1-0.1-0.4-0.3-0.8L71.2,137.5z M71.1,137.2l-1.5-3.6l-1.5,3.6H71.1z"/>
	<path class="st2" d="M82.6,139.1l3-6.9h2.6v0.3H88c-0.4,0-0.7,0-0.8,0.1c-0.1,0.1-0.2,0.2-0.3,0.4c0,0.2-0.1,0.6-0.1,1.3v4.1
		c0,0.7,0,1.1,0,1.3c0,0.2,0.1,0.4,0.2,0.5c0.1,0.1,0.4,0.1,0.8,0.1h0.4v0.3h-4v-0.3h0.3c0.4,0,0.6,0,0.7-0.1
		c0.1-0.1,0.2-0.2,0.3-0.4c0-0.2,0.1-0.6,0.1-1.3v-5.3l-3.3,7.5H82l-3.3-7.5v4.9c0,0.7,0,1.1,0.1,1.4c0,0.2,0.2,0.5,0.4,0.6
		c0.2,0.2,0.5,0.3,0.9,0.3v0.3h-3v-0.3c0.4,0,0.6-0.1,0.9-0.3c0.2-0.2,0.4-0.4,0.4-0.6c0-0.3,0.1-0.7,0.1-1.4v-3.6
		c0-0.7,0-1.1-0.1-1.3c0-0.2-0.1-0.3-0.2-0.4c-0.1-0.1-0.4-0.1-0.8-0.1H77v-0.3h2.5L82.6,139.1z"/>
	<path class="st2" d="M98.2,138h0.3l-0.2,2.6h-6.9v-0.3h0.2c0.4,0,0.7-0.1,0.8-0.2c0.1-0.1,0.2-0.3,0.2-0.4c0-0.2,0-0.6,0-1.3v-4.1
		c0-0.6,0-1.1-0.1-1.3c0-0.2-0.1-0.3-0.2-0.4s-0.4-0.1-0.8-0.1v-0.3h6l0.2,2.1h-0.3c-0.1-0.6-0.3-1-0.5-1.2
		c-0.2-0.2-0.4-0.4-0.7-0.5c-0.3-0.1-0.7-0.1-1.3-0.1h-1.2v3.5h0.9c0.4,0,0.7,0,0.9-0.1c0.2-0.1,0.3-0.2,0.3-0.3
		c0.1-0.1,0.1-0.4,0.1-0.8h0.3v2.9H96c0-0.5,0-0.8-0.1-0.9c-0.1-0.2-0.2-0.3-0.3-0.3c-0.1,0-0.4-0.1-0.8-0.1h-0.9v2
		c0,1,0.1,1.6,0.2,1.7c0.1,0.2,0.5,0.3,1,0.3h0.6c0.4,0,0.8-0.1,1.1-0.2c0.3-0.1,0.6-0.3,0.8-0.7C97.9,139.1,98.1,138.6,98.2,138z"
		/>
	<path class="st2" d="M110.6,140.6h-2.3c-0.4-0.3-1-1-1.8-2.2c-0.3-0.4-0.5-0.7-0.8-1.1c-0.3-0.3-0.5-0.6-0.6-0.6
		c-0.1-0.1-0.3-0.1-0.5-0.1h-0.3v1.9c0,0.7,0,1.1,0,1.3c0,0.2,0.1,0.4,0.2,0.5c0.1,0.1,0.4,0.1,0.8,0.1h0.4v0.3h-4v-0.3h0.3
		c0.4,0,0.6,0,0.7-0.1c0.1-0.1,0.2-0.2,0.3-0.4c0-0.2,0.1-0.6,0.1-1.3v-4.1c0-0.7,0-1.1-0.1-1.3c0-0.2-0.1-0.3-0.2-0.4
		s-0.4-0.1-0.8-0.1h-0.1v-0.3l1.2-0.1c0.8,0,1.4-0.1,1.9-0.1c0.8,0,1.4,0.1,1.9,0.2c0.5,0.1,0.9,0.4,1.2,0.7
		c0.3,0.3,0.5,0.7,0.5,1.2c0,0.5-0.2,1-0.6,1.4c-0.4,0.4-1,0.6-1.8,0.7c0.3,0.2,0.9,0.8,1.7,1.8c0.6,0.9,1.1,1.4,1.5,1.7
		c0.4,0.3,0.8,0.4,1.3,0.4V140.6z M104.3,136.2c0.3,0,0.6,0,1,0c0.3,0,0.6-0.1,0.9-0.1c0.2-0.1,0.4-0.2,0.6-0.3
		c0.2-0.1,0.3-0.3,0.4-0.6c0.1-0.2,0.1-0.5,0.1-0.9c0-0.6-0.1-1.1-0.4-1.4c-0.3-0.4-0.9-0.5-1.9-0.5c-0.2,0-0.3,0-0.5,0V136.2z"/>
	<path class="st2" d="M113.5,132.5v-0.3h3.8v0.3h-0.2c-0.4,0-0.7,0-0.8,0.1c-0.1,0.1-0.2,0.2-0.3,0.4c0,0.2-0.1,0.6-0.1,1.3v4.1
		c0,0.7,0,1.1,0,1.3c0,0.2,0.1,0.4,0.2,0.5c0.1,0.1,0.4,0.1,0.8,0.1h0.2v0.3h-3.8v-0.3h0.2c0.4,0,0.6,0,0.7-0.1
		c0.1-0.1,0.2-0.2,0.3-0.4c0-0.2,0.1-0.6,0.1-1.3v-4.1c0-0.7,0-1.1-0.1-1.3c0-0.2-0.1-0.3-0.2-0.4c-0.1-0.1-0.4-0.1-0.8-0.1H113.5z"
		/>
	<path class="st2" d="M128.2,137.4h0.3v2.9h-0.3c-0.1-0.3-0.2-0.6-0.4-0.9c-0.7,0.8-1.7,1.2-2.8,1.2c-1.2,0-2.2-0.4-3-1.1
		c-0.8-0.8-1.2-1.8-1.2-3c0-0.8,0.2-1.6,0.5-2.3c0.4-0.7,0.8-1.3,1.5-1.6c0.6-0.4,1.3-0.5,2.1-0.5c0.6,0,1.2,0.1,1.7,0.4
		c0.5,0.3,0.9,0.5,1.1,0.9c0.2-0.3,0.3-0.7,0.3-1.1h0.3l0.1,3.2h-0.3c-0.2-1.1-0.6-1.9-1.1-2.4c-0.6-0.4-1.2-0.7-1.9-0.7
		c-0.9,0-1.6,0.4-2.1,1.1s-0.8,1.7-0.8,3.1c0,1.3,0.3,2.2,0.8,2.9c0.6,0.7,1.3,1,2.1,1c0.4,0,0.9-0.1,1.4-0.3
		c0.5-0.2,0.8-0.6,1.1-1.1C128,138.4,128.1,137.9,128.2,137.4z"/>
	<path class="st2" d="M137.2,137.5h-3.2l-0.2,0.5c-0.3,0.8-0.5,1.3-0.5,1.5c0,0.3,0.1,0.4,0.3,0.6c0.2,0.1,0.4,0.2,0.7,0.2v0.3h-2.5
		v-0.3c0.4-0.1,0.6-0.2,0.8-0.4c0.2-0.2,0.4-0.6,0.7-1.3c0-0.1,0.1-0.3,0.3-0.7l2.4-5.8h0.2l2.8,6.6l0.4,0.9
		c0.1,0.2,0.2,0.4,0.3,0.5c0.1,0.1,0.4,0.2,0.7,0.2v0.3h-3.3v-0.3c0.4,0,0.7,0,0.8-0.1c0.1-0.1,0.2-0.2,0.2-0.4
		c0-0.1-0.1-0.4-0.3-0.8L137.2,137.5z M137.1,137.2l-1.5-3.6l-1.5,3.6H137.1z"/>
	<path class="st2" d="M150.7,140.8l-5.9-7.8v5.8c0,0.5,0,0.8,0.1,1c0,0.2,0.2,0.3,0.4,0.4s0.6,0.2,1,0.2v0.3h-3.1v-0.3
		c0.4,0,0.7-0.1,0.9-0.2c0.2-0.1,0.3-0.2,0.4-0.4c0-0.1,0.1-0.5,0.1-1v-4.4c0-0.6,0-1.1-0.1-1.3c-0.1-0.2-0.2-0.4-0.3-0.4
		c-0.1-0.1-0.4-0.1-0.9-0.1v-0.3h2.5l5,6.5v-5c0-0.4,0-0.6-0.1-0.8c-0.1-0.1-0.2-0.3-0.5-0.4s-0.5-0.1-0.8-0.1v-0.3h3v0.3
		c-0.4,0-0.6,0.1-0.8,0.2s-0.3,0.2-0.4,0.4c-0.1,0.2-0.1,0.4-0.1,0.8v6.9H150.7z"/>
	<path class="st2" d="M168.3,140.8l-5.9-7.8v5.8c0,0.5,0,0.8,0.1,1c0,0.2,0.2,0.3,0.4,0.4c0.2,0.1,0.6,0.2,1,0.2v0.3h-3.1v-0.3
		c0.4,0,0.7-0.1,0.9-0.2c0.2-0.1,0.3-0.2,0.4-0.4c0-0.1,0.1-0.5,0.1-1v-4.4c0-0.6,0-1.1-0.1-1.3s-0.2-0.4-0.3-0.4
		c-0.1-0.1-0.4-0.1-0.9-0.1v-0.3h2.5l5,6.5v-5c0-0.4,0-0.6-0.1-0.8c-0.1-0.1-0.2-0.3-0.5-0.4s-0.5-0.1-0.8-0.1v-0.3h3v0.3
		c-0.4,0-0.6,0.1-0.8,0.2s-0.3,0.2-0.4,0.4c-0.1,0.2-0.1,0.4-0.1,0.8v6.9H168.3z"/>
	<path class="st2" d="M179.2,132.2h2.8v0.3c-0.4,0-0.6,0.1-0.8,0.3c-0.2,0.1-0.3,0.3-0.3,0.5c0,0.2-0.1,0.5-0.1,1v2.8
		c0,0.7,0,1.2-0.1,1.6c-0.1,0.3-0.2,0.7-0.5,1c-0.3,0.3-0.6,0.6-1.1,0.8c-0.5,0.2-1,0.3-1.7,0.3c-0.7,0-1.4-0.1-1.9-0.4
		c-0.5-0.3-0.9-0.6-1.1-1c-0.2-0.4-0.3-0.9-0.3-1.6l0-0.9v-2.6c0-0.7,0-1.1-0.1-1.3c0-0.2-0.1-0.3-0.2-0.4s-0.4-0.1-0.8-0.1h-0.2
		v-0.3h3.8v0.3h-0.2c-0.4,0-0.7,0-0.8,0.1c-0.1,0.1-0.2,0.2-0.3,0.4c0,0.2-0.1,0.6-0.1,1.3v2.6c0,0.9,0,1.6,0.1,1.9
		c0.1,0.4,0.3,0.7,0.7,1c0.4,0.3,0.9,0.4,1.6,0.4c0.5,0,1-0.1,1.4-0.3c0.4-0.2,0.7-0.4,0.9-0.7c0.2-0.3,0.3-0.6,0.4-0.9
		c0-0.3,0.1-0.8,0.1-1.4v-2.8c0-0.5,0-0.8-0.1-1c-0.1-0.2-0.2-0.3-0.3-0.5c-0.2-0.1-0.5-0.2-0.8-0.2V132.2z"/>
	<path class="st2" d="M185.4,134.2h-0.3l0-2h8.1l0,2h-0.3c-0.1-0.6-0.2-0.9-0.4-1.2c-0.2-0.2-0.3-0.4-0.5-0.5
		c-0.2-0.1-0.5-0.1-1-0.1h-1.3v5.9c0,0.7,0,1.1,0,1.3c0,0.2,0.1,0.4,0.3,0.5s0.4,0.1,0.8,0.1h0.4v0.3h-4.2v-0.3h0.4
		c0.4,0,0.6,0,0.7-0.1c0.1-0.1,0.2-0.2,0.3-0.4c0-0.2,0.1-0.6,0.1-1.3v-5.9h-1.2c-0.5,0-0.9,0-1.1,0.1c-0.2,0.1-0.4,0.2-0.5,0.5
		C185.6,133.3,185.5,133.7,185.4,134.2z"/>
	<path class="st2" d="M205.4,140.6h-2.3c-0.4-0.3-1-1-1.8-2.2c-0.3-0.4-0.5-0.7-0.8-1.1c-0.3-0.3-0.5-0.6-0.6-0.6
		c-0.1-0.1-0.3-0.1-0.5-0.1H199v1.9c0,0.7,0,1.1,0,1.3c0,0.2,0.1,0.4,0.2,0.5c0.1,0.1,0.4,0.1,0.8,0.1h0.4v0.3h-4v-0.3h0.3
		c0.4,0,0.6,0,0.7-0.1c0.1-0.1,0.2-0.2,0.3-0.4c0-0.2,0.1-0.6,0.1-1.3v-4.1c0-0.7,0-1.1-0.1-1.3c0-0.2-0.1-0.3-0.2-0.4
		c-0.1-0.1-0.4-0.1-0.8-0.1h-0.1v-0.3l1.2-0.1c0.8,0,1.4-0.1,1.9-0.1c0.8,0,1.4,0.1,1.9,0.2c0.5,0.1,0.9,0.4,1.2,0.7
		c0.3,0.3,0.5,0.7,0.5,1.2c0,0.5-0.2,1-0.6,1.4c-0.4,0.4-1,0.6-1.8,0.7c0.3,0.2,0.9,0.8,1.7,1.8c0.6,0.9,1.1,1.4,1.5,1.7
		c0.4,0.3,0.8,0.4,1.3,0.4V140.6z M199,136.2c0.3,0,0.6,0,1,0c0.3,0,0.6-0.1,0.9-0.1c0.2-0.1,0.4-0.2,0.6-0.3
		c0.1-0.1,0.3-0.3,0.4-0.6c0.1-0.2,0.1-0.5,0.1-0.9c0-0.6-0.1-1.1-0.4-1.4c-0.3-0.4-0.9-0.5-1.9-0.5c-0.2,0-0.3,0-0.5,0V136.2z"/>
	<path class="st2" d="M213.4,137.5h-3.2L210,138c-0.3,0.8-0.5,1.3-0.5,1.5c0,0.3,0.1,0.4,0.3,0.6c0.2,0.1,0.4,0.2,0.7,0.2v0.3h-2.5
		v-0.3c0.4-0.1,0.6-0.2,0.8-0.4c0.2-0.2,0.4-0.6,0.7-1.3c0-0.1,0.1-0.3,0.3-0.7l2.4-5.8h0.2l2.8,6.6l0.4,0.9
		c0.1,0.2,0.2,0.4,0.3,0.5c0.1,0.1,0.4,0.2,0.7,0.2v0.3h-3.3v-0.3c0.4,0,0.7,0,0.8-0.1c0.1-0.1,0.2-0.2,0.2-0.4
		c0-0.1-0.1-0.4-0.3-0.8L213.4,137.5z M213.2,137.2l-1.5-3.6l-1.5,3.6H213.2z"/>
</g>
</svg>
