<?xml version="1.0" encoding="utf-8"?>
<!-- Generator: Adobe Illustrator 23.0.3, SVG Export Plug-In . SVG Version: 6.00 Build 0)  -->
<svg version="1.1" xmlns="http://www.w3.org/2000/svg" xmlns:xlink="http://www.w3.org/1999/xlink" x="0px" y="0px"
	 viewBox="0 0 129.2 119.5" style="enable-background:new 0 0 129.2 119.5;" xml:space="preserve">
<style type="text/css">
	.st0{fill:#FFFFFF;stroke:#000000;stroke-miterlimit:10;}
	.st1{fill:#0F1414;}
	.st2{font-family:'Roboto-Medium';}
	.st3{font-size:4px;}
	.st4{font-family:'Roboto-Regular';}
	.st5{font-family:'Roboto-MediumItalic';}
	.st6{font-family:'Roboto-Black';}
	.st7{font-family:'Roboto-Bold';}
	.st8{font-size:13px;}
</style>
<g id="Artwork">
	<rect x="0.5" y="0.5" class="st0" width="128.2" height="105"/>
	<rect x="4.5" y="56.1" class="st1" width="119.6" height="4.8"/>
	<rect x="4.5" y="68.5" class="st1" width="119.6" height="0.6"/>
	<rect x="4.5" y="29.2" class="st1" width="119.6" height="4.8"/>
	<rect x="4.5" y="41.3" class="st1" width="119.6" height="2.4"/>
	<rect x="4.5" y="92.3" class="st1" width="119.6" height="4.8"/>
</g>
<g id="Text">
	<text transform="matrix(1 0 0 1 4.0698 21.4081)" class="st1 st2 st3">Serving Size: 2 capsules</text>
	<text transform="matrix(1 0 0 1 4.738 48.692)"><tspan x="0" y="0" class="st1 st2 st3">Selenium </tspan><tspan x="20.2" y="0" class="st1 st4 st3">(from high-selenium yeast)</tspan><tspan x="0" y="4.8" class="st1 st4 st3">    (SelenoExcell®)</tspan></text>
	<text transform="matrix(1 0 0 1 4.8211 66.206)"><tspan x="0" y="0" class="st1 st2 st3">N-Acetyl-L-Cysteine </tspan><tspan x="42.9" y="0" class="st1 st2 st3">(NAC)</tspan></text>
	<text transform="matrix(1 0 0 1 4.8171 74.3599)"><tspan x="0" y="0" class="st1 st2 st3">Blood Orange Extract</tspan><tspan x="48" y="0" class="st1 st2 st3"> </tspan><tspan x="49" y="0" class="st1 st5 st3">(Citrus sinensis)</tspan></text>
	<text transform="matrix(1 0 0 1 7.2358 79.8995)"><tspan x="0" y="0" class="st1 st2 st3">(fruit pericarp</tspan><tspan x="24.5" y="0" class="st1 st4 st3">) (8.5% flavanones, 2.8%</tspan><tspan x="0" y="4.8" class="st1 st4 st3">anthocyanins, &amp; 1.8% hydroxycinnamic acid)</tspan><tspan x="0" y="9.6" class="st1 st4 st3">(Red Orange Complex®)</tspan></text>
	<text transform="matrix(1 0 0 1 9.1189 102.5574)" class="st1 st2 st3">Daily Value not established</text>
	<text transform="matrix(1 0 0 1 2.641678e-04 113.1269)"><tspan x="0" y="0" class="st1 st4 st3">Other ingredients: microcrystalline cellulose, gelatin, stearic acid,</tspan><tspan x="0" y="5.3" class="st1 st4 st3">magnesium stearate and silica</tspan></text>
	<text transform="matrix(1 0 0 1 76.4321 38.9287)" class="st1 st2 st3">Amount per Serving</text>
	<text transform="matrix(1 0 0 1 96.227 48.5165)" class="st1 st2 st3">200 mcg</text>
	<text transform="matrix(1 0 0 1 98.3207 65.7881)" class="st1 st2 st3">600 mg</text>
	<text transform="matrix(1 0 0 1 98.3207 74.2879)" class="st1 st2 st3">100 mg</text>
	<polygon class="st1" points="123.4,63.7 122.4,63.7 122.4,62.7 122,62.7 122,63.7 121,63.7 121,64.1 122,64.1 122,66.3 122.4,66.3 
		122.4,64.1 123.4,64.1 	"/>
	<polygon class="st1" points="123.4,71.9 122.4,71.9 122.4,70.9 122,70.9 122,71.9 121,71.9 121,72.4 122,72.4 122,74.5 122.4,74.5 
		122.4,72.4 123.4,72.4 	"/>
	<polygon class="st1" points="7.4,100.1 6.5,100.1 6.5,99.1 6,99.1 6,100.1 5.1,100.1 5.1,100.6 6,100.6 6,102.7 6.5,102.7 
		6.5,100.6 7.4,100.6 	"/>
	<text transform="matrix(1 0 0 1 114.9901 38.9287)" class="st1 st2 st3">% DV</text>
	<text transform="matrix(1 0 0 1 3.8549 26.4081)" class="st1 st2 st3">Servings per Container: 30</text>
	<text transform="matrix(1 0 0 1 114.5129 48.5165)" class="st1 st6 st3">364%</text>
	<text transform="matrix(1 -5.970000e-03 5.970000e-03 1 3.8763 13.4384)" class="st1 st7 st8">Supplement Facts</text>
</g>
</svg>
