<?xml version="1.0" encoding="utf-8"?>
<!-- Generator: Adobe Illustrator 23.0.3, SVG Export Plug-In . SVG Version: 6.00 Build 0)  -->
<svg version="1.1" id="Text" xmlns="http://www.w3.org/2000/svg" xmlns:xlink="http://www.w3.org/1999/xlink" x="0px" y="0px"
	 viewBox="0 0 153 16.2" style="enable-background:new 0 0 153 16.2;" xml:space="preserve">
<style type="text/css">
	.st0{fill:#0F1414;}
	.st1{fill:#52A02F;}
</style>
<g>
	<path class="st0" d="M0,15.7v-5h0.6c0.7,3.3,2.2,4.9,4.6,4.9c1.1,0,1.9-0.3,2.5-0.9c0.6-0.6,0.9-1.3,0.9-2.1c0-0.8-0.3-1.4-0.8-2
		C7.3,10.1,6.4,9.5,5,8.9c-1.2-0.5-2.2-1-2.8-1.4C1.5,7.1,1,6.6,0.6,5.9C0.3,5.3,0.1,4.6,0.1,3.9c0-1.1,0.4-2,1.2-2.8
		C2,0.4,3,0,4.2,0c0.7,0,1.3,0.1,1.9,0.3C6.6,0.5,7.2,1,7.8,1.7c0.4-0.4,0.6-0.9,0.6-1.4h0.5v4.1H8.4C8.1,3.2,7.6,2.2,6.9,1.6
		c-0.7-0.7-1.6-1-2.6-1c-0.9,0-1.6,0.3-2,0.8C1.9,1.8,1.6,2.3,1.6,2.9c0,0.7,0.3,1.3,0.8,1.8C3,5.3,4,5.8,5.4,6.5
		c1.3,0.6,2.3,1.1,2.9,1.4c0.6,0.4,1.1,0.9,1.5,1.5c0.4,0.6,0.6,1.4,0.6,2.2c0,1.3-0.4,2.4-1.3,3.2c-0.9,0.8-2.1,1.3-3.6,1.3
		c-1.7,0-3.1-0.7-4.3-2c-0.3,0.4-0.4,0.9-0.6,1.5H0z"/>
	<path class="st0" d="M24.8,11h0.6L25,15.9H12.1v-0.5h0.3c0.8,0,1.3-0.1,1.5-0.3c0.2-0.2,0.4-0.5,0.4-0.8c0.1-0.3,0.1-1.1,0.1-2.4
		V4.2c0-1.2,0-2-0.1-2.3S14.2,1.2,13.9,1c-0.2-0.1-0.7-0.2-1.5-0.2V0.3h11.1l0.4,3.9h-0.5c-0.2-1.1-0.5-1.9-0.9-2.3
		c-0.4-0.5-0.8-0.7-1.3-0.9s-1.3-0.2-2.4-0.2h-2.2v6.5h1.7c0.8,0,1.3-0.1,1.6-0.2c0.3-0.1,0.5-0.3,0.6-0.6s0.1-0.8,0.1-1.5h0.5v5.3
		h-0.5c0-0.9-0.1-1.4-0.2-1.7c-0.1-0.3-0.4-0.5-0.6-0.6c-0.3-0.1-0.8-0.1-1.4-0.1h-1.7v3.7c0,1.8,0.1,2.9,0.4,3.3
		c0.2,0.3,0.9,0.5,1.9,0.5h1.2c0.8,0,1.5-0.1,2-0.3c0.5-0.2,1-0.6,1.5-1.3C24.1,13.1,24.5,12.2,24.8,11z"/>
	<path class="st0" d="M40.1,11.3L40,15.9H26.7v-0.5h0.5c0.7,0,1.1-0.1,1.4-0.3c0.3-0.2,0.4-0.4,0.5-0.8c0.1-0.4,0.1-1.2,0.1-2.5V4.2
		c0-1.2,0-2-0.1-2.4S28.8,1.2,28.6,1c-0.2-0.1-0.7-0.2-1.5-0.2h-0.3V0.3h7.5v0.5h-0.7c-0.8,0-1.3,0.1-1.5,0.2
		c-0.2,0.1-0.4,0.4-0.5,0.7c-0.1,0.3-0.1,1.2-0.1,2.5v8.2c0,1.1,0,1.8,0.1,2.1c0.1,0.3,0.2,0.5,0.5,0.7c0.3,0.2,0.9,0.2,1.8,0.2h1.2
		c1,0,1.7-0.1,2.1-0.3c0.5-0.2,0.9-0.5,1.3-1.1s0.8-1.5,1.1-2.7H40.1z"/>
	<path class="st0" d="M53.7,11h0.6l-0.3,4.8H41v-0.5h0.3c0.8,0,1.3-0.1,1.5-0.3c0.2-0.2,0.4-0.5,0.4-0.8c0.1-0.3,0.1-1.1,0.1-2.4
		V4.2c0-1.2,0-2-0.1-2.3S43,1.2,42.8,1c-0.2-0.1-0.7-0.2-1.5-0.2V0.3h11.1l0.4,3.9h-0.5c-0.2-1.1-0.5-1.9-0.9-2.3
		C51,1.4,50.6,1.1,50.1,1s-1.3-0.2-2.4-0.2h-2.2v6.5h1.7c0.8,0,1.3-0.1,1.6-0.2c0.3-0.1,0.5-0.3,0.6-0.6s0.1-0.8,0.1-1.5h0.5v5.3
		h-0.5c0-0.9-0.1-1.4-0.2-1.7C49.2,8.3,49,8.1,48.7,8c-0.3-0.1-0.8-0.1-1.4-0.1h-1.7v3.7c0,1.8,0.1,2.9,0.4,3.3
		c0.2,0.3,0.9,0.5,1.9,0.5H49c0.8,0,1.5-0.1,2-0.3c0.5-0.2,1-0.6,1.5-1.3C53,13.1,53.4,12.2,53.7,11z"/>
	<path class="st0" d="M69.4,16.2l-11-14.6v10.8c0,0.9,0,1.5,0.1,1.8s0.3,0.5,0.8,0.8c0.4,0.2,1,0.4,1.9,0.4v0.5h-5.8v-0.5
		c0.7-0.1,1.3-0.2,1.7-0.4c0.4-0.2,0.6-0.5,0.7-0.7s0.1-0.8,0.1-1.8V4.2c0-1.2-0.1-2-0.2-2.4c-0.1-0.4-0.3-0.7-0.5-0.8
		s-0.8-0.2-1.6-0.2V0.3h4.6l9.2,12.2V3.2c0-0.7-0.1-1.2-0.2-1.4c-0.1-0.3-0.4-0.5-0.9-0.7c-0.4-0.2-1-0.2-1.6-0.2V0.3h5.6v0.5
		c-0.7,0.1-1.2,0.2-1.6,0.4c-0.4,0.2-0.6,0.4-0.7,0.7c-0.1,0.3-0.2,0.8-0.2,1.4v12.9H69.4z"/>
	<path class="st0" d="M86,11h0.6l-0.3,4.8H73.3v-0.5h0.3c0.8,0,1.3-0.1,1.5-0.3c0.2-0.2,0.4-0.5,0.4-0.8c0.1-0.3,0.1-1.1,0.1-2.4
		V4.2c0-1.2,0-2-0.1-2.3S75.4,1.2,75.1,1c-0.2-0.1-0.7-0.2-1.5-0.2V0.3h11.1l0.4,3.9h-0.5c-0.2-1.1-0.5-1.9-0.9-2.3
		c-0.4-0.5-0.8-0.7-1.3-0.9s-1.3-0.2-2.4-0.2h-2.2v6.5h1.7c0.8,0,1.3-0.1,1.6-0.2c0.3-0.1,0.5-0.3,0.6-0.6s0.1-0.8,0.1-1.5h0.5v5.3
		h-0.5c0-0.9-0.1-1.4-0.2-1.7c-0.1-0.3-0.4-0.5-0.6-0.6c-0.3-0.1-0.8-0.1-1.4-0.1h-1.7v3.7c0,1.8,0.1,2.9,0.4,3.3
		c0.2,0.3,0.9,0.5,1.9,0.5h1.2c0.8,0,1.5-0.1,2-0.3c0.5-0.2,1-0.6,1.5-1.3C85.4,13.1,85.7,12.2,86,11z"/>
	<path class="st0" d="M97,7.2l4,4.9c1.4,1.7,2.4,2.7,2.7,2.9s0.9,0.3,1.5,0.3v0.5h-7.7v-0.5c0.8,0,1.3-0.1,1.6-0.2
		c0.3-0.1,0.5-0.4,0.5-0.7c0-0.2-0.1-0.4-0.2-0.6c-0.1-0.2-0.5-0.7-1.1-1.4l-2.8-3.4l-2.4,3c-0.6,0.7-0.9,1.2-1.1,1.5
		s-0.3,0.6-0.3,0.8c0,0.8,0.6,1.2,1.8,1.2v0.5h-6v-0.5c0.7,0,1.2-0.2,1.8-0.4c0.5-0.2,1-0.6,1.5-1c0.4-0.4,1.1-1.2,1.9-2.2l2.6-3.1
		l-4.1-4.9L89.9,2c-0.3-0.3-0.6-0.6-0.9-0.8c-0.3-0.2-0.8-0.3-1.4-0.3V0.3h6.6v0.5H94c-0.9,0-1.3,0.2-1.3,0.7c0,0.2,0.1,0.4,0.2,0.6
		c0.1,0.2,0.4,0.6,0.9,1.2l2.9,3.5l2.6-3.2c0.6-0.7,0.9-1.1,1-1.3s0.2-0.4,0.2-0.6c0-0.3-0.2-0.5-0.5-0.7c-0.3-0.1-0.8-0.2-1.6-0.2
		V0.3h5.8v0.5c-1,0-1.8,0.3-2.5,0.9s-1.4,1.4-2.2,2.4L97,7.2z"/>
	<path class="st1" d="M115,9.2h6.7v0.6c-0.7,0-1.2,0.1-1.5,0.2c-0.3,0.1-0.4,0.4-0.5,0.7s-0.1,1.2-0.1,2.5v1.7c-0.2,0-0.3,0-0.5,0
		c-0.6,0-1.4,0.2-2.3,0.5c-1.3,0.5-2.5,0.7-3.6,0.7c-2.2,0-4.1-0.7-5.6-2.2c-1.5-1.5-2.2-3.3-2.2-5.6c0-2.2,0.7-4.2,2.1-5.9
		s3.3-2.5,5.7-2.5c2.1,0,3.8,0.8,5.2,2.3c0.3-0.5,0.4-1.1,0.5-1.7h0.6v5.2h-0.6C118.6,4.2,118,2.9,117,2c-1-0.9-2.2-1.4-3.6-1.4
		c-1.5,0-2.7,0.5-3.8,1.6s-1.6,3-1.6,5.8c0,2.8,0.5,4.7,1.6,5.9s2.3,1.7,3.9,1.7c0.8,0,1.5-0.2,2.2-0.5c0.7-0.3,1.1-0.7,1.3-1.2
		s0.4-1.1,0.4-1.8c0-0.8-0.1-1.4-0.2-1.7c-0.1-0.3-0.3-0.5-0.5-0.6s-0.7-0.1-1.3-0.1H115V9.2z"/>
	<path class="st1" d="M123.6,15.7v-5h0.6c0.7,3.3,2.2,4.9,4.6,4.9c1.1,0,1.9-0.3,2.5-0.9c0.6-0.6,0.9-1.3,0.9-2.1
		c0-0.8-0.3-1.4-0.8-2c-0.5-0.5-1.5-1.1-2.9-1.7c-1.2-0.5-2.2-1-2.8-1.4c-0.6-0.4-1.1-0.9-1.5-1.6c-0.4-0.6-0.5-1.3-0.5-2.1
		c0-1.1,0.4-2,1.2-2.8c0.8-0.7,1.7-1.1,2.9-1.1c0.7,0,1.3,0.1,1.9,0.3c0.6,0.2,1.2,0.7,1.8,1.3c0.4-0.4,0.6-0.9,0.6-1.4h0.5v4.1H132
		c-0.3-1.2-0.8-2.1-1.5-2.8c-0.7-0.7-1.6-1-2.6-1c-0.9,0-1.6,0.3-2,0.8c-0.4,0.5-0.6,1.1-0.6,1.6c0,0.7,0.3,1.3,0.8,1.8
		c0.5,0.5,1.5,1.1,2.9,1.7c1.3,0.6,2.3,1.1,2.9,1.4c0.6,0.4,1.1,0.9,1.5,1.5c0.4,0.6,0.6,1.4,0.6,2.2c0,1.3-0.4,2.4-1.3,3.2
		c-0.9,0.8-2.1,1.3-3.6,1.3c-1.7,0-3.1-0.7-4.3-2c-0.3,0.4-0.4,0.9-0.6,1.5H123.6z"/>
	<path class="st1" d="M148.5,8h-8.1v3.8c0,1.2,0,2,0.1,2.4s0.2,0.7,0.5,0.8s0.7,0.3,1.4,0.3h0.4v0.5h-7v-0.5h0.4
		c0.7,0,1.1-0.1,1.4-0.3c0.3-0.2,0.4-0.4,0.5-0.8c0.1-0.4,0.1-1.2,0.1-2.5V4.2c0-1.2,0-2-0.1-2.4c-0.1-0.4-0.2-0.6-0.5-0.7
		c-0.2-0.1-0.7-0.2-1.5-0.2h-0.3V0.3h7v0.5h-0.3c-0.8,0-1.3,0.1-1.5,0.2c-0.2,0.1-0.4,0.4-0.5,0.7c-0.1,0.3-0.1,1.2-0.1,2.5v3.1h8.1
		V4.2c0-1.2,0-2-0.1-2.4c-0.1-0.4-0.2-0.6-0.5-0.7c-0.2-0.1-0.7-0.2-1.5-0.2H146V0.3h7.1v0.5h-0.2c-0.8,0-1.3,0.1-1.5,0.2
		c-0.2,0.1-0.4,0.4-0.5,0.7c-0.1,0.3-0.1,1.2-0.1,2.5v7.6c0,1.2,0,2,0.1,2.4c0.1,0.4,0.2,0.7,0.5,0.8c0.3,0.2,0.7,0.3,1.4,0.3h0.4
		v0.5H146v-0.5h0.5c0.7,0,1.1-0.1,1.4-0.3c0.3-0.2,0.4-0.4,0.5-0.8c0.1-0.4,0.1-1.2,0.1-2.5V8z"/>
</g>
</svg>
